<svg width="1363" height="163" viewBox="0 0 1363 163" fill="none" xmlns="http://www.w3.org/2000/svg">
<path d="M0 15C0 6.71573 6.71573 0 15 0H37V163H15C6.71573 163 0 156.284 0 148V15Z" fill="#424242"/>
<rect width="1097" height="163" transform="translate(37)" fill="#F0F0F0"/>
<path d="M101.906 53.9219L94.3945 51.2383V48.0859L104.602 52.375V54.6367L101.906 53.9219ZM94.3945 56.1719L101.918 53.4297L104.602 52.7852V55.0352L94.3945 59.3242V56.1719ZM119.836 46.8555L115.195 61H111.457L117.797 43.9375H120.176L119.836 46.8555ZM123.691 61L119.039 46.8555L118.664 43.9375H121.066L127.441 61H123.691ZM123.48 54.6484V57.4023H114.469V54.6484H123.48ZM134.648 61.2344C133.664 61.2344 132.781 61.0781 132 60.7656C131.219 60.4453 130.555 60.0039 130.008 59.4414C129.469 58.8789 129.055 58.2266 128.766 57.4844C128.477 56.7344 128.332 55.9375 128.332 55.0938V54.625C128.332 53.6641 128.469 52.7852 128.742 51.9883C129.016 51.1914 129.406 50.5 129.914 49.9141C130.43 49.3281 131.055 48.8789 131.789 48.5664C132.523 48.2461 133.352 48.0859 134.273 48.0859C135.172 48.0859 135.969 48.2344 136.664 48.5312C137.359 48.8281 137.941 49.25 138.41 49.7969C138.887 50.3438 139.246 51 139.488 51.7656C139.73 52.5234 139.852 53.3672 139.852 54.2969V55.7031H129.773V53.4531H136.535V53.1953C136.535 52.7266 136.449 52.3086 136.277 51.9414C136.113 51.5664 135.863 51.2695 135.527 51.0508C135.191 50.832 134.762 50.7227 134.238 50.7227C133.793 50.7227 133.41 50.8203 133.09 51.0156C132.77 51.2109 132.508 51.4844 132.305 51.8359C132.109 52.1875 131.961 52.6016 131.859 53.0781C131.766 53.5469 131.719 54.0625 131.719 54.625V55.0938C131.719 55.6016 131.789 56.0703 131.93 56.5C132.078 56.9297 132.285 57.3008 132.551 57.6133C132.824 57.9258 133.152 58.168 133.535 58.3398C133.926 58.5117 134.367 58.5977 134.859 58.5977C135.469 58.5977 136.035 58.4805 136.559 58.2461C137.09 58.0039 137.547 57.6406 137.93 57.1562L139.57 58.9375C139.305 59.3203 138.941 59.6875 138.48 60.0391C138.027 60.3906 137.48 60.6797 136.84 60.9062C136.199 61.125 135.469 61.2344 134.648 61.2344ZM149.801 48.3203H152.859V60.5781C152.859 61.7344 152.602 62.7148 152.086 63.5195C151.578 64.332 150.867 64.9453 149.953 65.3594C149.039 65.7812 147.977 65.9922 146.766 65.9922C146.234 65.9922 145.672 65.9219 145.078 65.7812C144.492 65.6406 143.93 65.4219 143.391 65.125C142.859 64.8281 142.414 64.4531 142.055 64L143.543 62.0078C143.934 62.4609 144.387 62.8125 144.902 63.0625C145.418 63.3203 145.988 63.4492 146.613 63.4492C147.223 63.4492 147.738 63.3359 148.16 63.1094C148.582 62.8906 148.906 62.5664 149.133 62.1367C149.359 61.7148 149.473 61.2031 149.473 60.6016V51.25L149.801 48.3203ZM141.27 54.8125V54.5664C141.27 53.5977 141.387 52.7188 141.621 51.9297C141.863 51.1328 142.203 50.4492 142.641 49.8789C143.086 49.3086 143.625 48.8672 144.258 48.5547C144.891 48.2422 145.605 48.0859 146.402 48.0859C147.246 48.0859 147.953 48.2422 148.523 48.5547C149.094 48.8672 149.562 49.3125 149.93 49.8906C150.297 50.4609 150.582 51.1367 150.785 51.918C150.996 52.6914 151.16 53.5391 151.277 54.4609V55C151.16 55.8828 150.984 56.7031 150.75 57.4609C150.516 58.2188 150.207 58.8828 149.824 59.4531C149.441 60.0156 148.965 60.4531 148.395 60.7656C147.832 61.0781 147.16 61.2344 146.379 61.2344C145.598 61.2344 144.891 61.0742 144.258 60.7539C143.633 60.4336 143.098 59.9844 142.652 59.4062C142.207 58.8281 141.863 58.1484 141.621 57.3672C141.387 56.5859 141.27 55.7344 141.27 54.8125ZM144.645 54.5664V54.8125C144.645 55.3359 144.695 55.8242 144.797 56.2773C144.898 56.7305 145.055 57.1328 145.266 57.4844C145.484 57.8281 145.754 58.0977 146.074 58.293C146.402 58.4805 146.789 58.5742 147.234 58.5742C147.852 58.5742 148.355 58.4453 148.746 58.1875C149.137 57.9219 149.43 57.5586 149.625 57.0977C149.82 56.6367 149.934 56.1055 149.965 55.5039V53.9688C149.949 53.4766 149.883 53.0352 149.766 52.6445C149.648 52.2461 149.484 51.9062 149.273 51.625C149.062 51.3438 148.789 51.125 148.453 50.9688C148.117 50.8125 147.719 50.7344 147.258 50.7344C146.812 50.7344 146.426 50.8359 146.098 51.0391C145.777 51.2344 145.508 51.5039 145.289 51.8477C145.078 52.1914 144.918 52.5977 144.809 53.0664C144.699 53.5273 144.645 54.0273 144.645 54.5664ZM159.047 48.3203V61H155.66V48.3203H159.047ZM155.449 45.0156C155.449 44.5234 155.621 44.1172 155.965 43.7969C156.309 43.4766 156.77 43.3164 157.348 43.3164C157.918 43.3164 158.375 43.4766 158.719 43.7969C159.07 44.1172 159.246 44.5234 159.246 45.0156C159.246 45.5078 159.07 45.9141 158.719 46.2344C158.375 46.5547 157.918 46.7148 157.348 46.7148C156.77 46.7148 156.309 46.5547 155.965 46.2344C155.621 45.9141 155.449 45.5078 155.449 45.0156ZM168.691 57.4961C168.691 57.2539 168.621 57.0352 168.48 56.8398C168.34 56.6445 168.078 56.4648 167.695 56.3008C167.32 56.1289 166.777 55.9727 166.066 55.832C165.426 55.6914 164.828 55.5156 164.273 55.3047C163.727 55.0859 163.25 54.8242 162.844 54.5195C162.445 54.2148 162.133 53.8555 161.906 53.4414C161.68 53.0195 161.566 52.5391 161.566 52C161.566 51.4688 161.68 50.9688 161.906 50.5C162.141 50.0312 162.473 49.6172 162.902 49.2578C163.34 48.8906 163.871 48.6055 164.496 48.4023C165.129 48.1914 165.84 48.0859 166.629 48.0859C167.73 48.0859 168.676 48.2617 169.465 48.6133C170.262 48.9648 170.871 49.4492 171.293 50.0664C171.723 50.6758 171.938 51.3711 171.938 52.1523H168.562C168.562 51.8242 168.492 51.5312 168.352 51.2734C168.219 51.0078 168.008 50.8008 167.719 50.6523C167.438 50.4961 167.07 50.418 166.617 50.418C166.242 50.418 165.918 50.4844 165.645 50.6172C165.371 50.7422 165.16 50.9141 165.012 51.1328C164.871 51.3438 164.801 51.5781 164.801 51.8359C164.801 52.0312 164.84 52.207 164.918 52.3633C165.004 52.5117 165.141 52.6484 165.328 52.7734C165.516 52.8984 165.758 53.0156 166.055 53.125C166.359 53.2266 166.734 53.3203 167.18 53.4062C168.094 53.5938 168.91 53.8398 169.629 54.1445C170.348 54.4414 170.918 54.8477 171.34 55.3633C171.762 55.8711 171.973 56.5391 171.973 57.3672C171.973 57.9297 171.848 58.4453 171.598 58.9141C171.348 59.3828 170.988 59.793 170.52 60.1445C170.051 60.4883 169.488 60.7578 168.832 60.9531C168.184 61.1406 167.453 61.2344 166.641 61.2344C165.461 61.2344 164.461 61.0234 163.641 60.6016C162.828 60.1797 162.211 59.6445 161.789 58.9961C161.375 58.3398 161.168 57.668 161.168 56.9805H164.367C164.383 57.4414 164.5 57.8125 164.719 58.0938C164.945 58.375 165.23 58.5781 165.574 58.7031C165.926 58.8281 166.305 58.8906 166.711 58.8906C167.148 58.8906 167.512 58.832 167.801 58.7148C168.09 58.5898 168.309 58.4258 168.457 58.2227C168.613 58.0117 168.691 57.7695 168.691 57.4961ZM181.312 46.8555L176.672 61H172.934L179.273 43.9375H181.652L181.312 46.8555ZM185.168 61L180.516 46.8555L180.141 43.9375H182.543L188.918 61H185.168ZM184.957 54.6484V57.4023H175.945V54.6484H184.957ZM194.238 43.9375V61H190.734V43.9375H194.238ZM203.977 52.3516V55H197.355V52.3516H203.977ZM215.883 56.5352C215.883 56.2305 215.836 55.957 215.742 55.7148C215.656 55.4648 215.492 55.2383 215.25 55.0352C215.008 54.8242 214.668 54.6172 214.23 54.4141C213.793 54.2109 213.227 54 212.531 53.7812C211.758 53.5312 211.023 53.25 210.328 52.9375C209.641 52.625 209.031 52.2617 208.5 51.8477C207.977 51.4258 207.562 50.9375 207.258 50.3828C206.961 49.8281 206.812 49.1836 206.812 48.4492C206.812 47.7383 206.969 47.0938 207.281 46.5156C207.594 45.9297 208.031 45.4297 208.594 45.0156C209.156 44.5938 209.82 44.2695 210.586 44.043C211.359 43.8164 212.207 43.7031 213.129 43.7031C214.387 43.7031 215.484 43.9297 216.422 44.3828C217.359 44.8359 218.086 45.457 218.602 46.2461C219.125 47.0352 219.387 47.9375 219.387 48.9531H215.895C215.895 48.4531 215.789 48.0156 215.578 47.6406C215.375 47.2578 215.062 46.957 214.641 46.7383C214.227 46.5195 213.703 46.4102 213.07 46.4102C212.461 46.4102 211.953 46.5039 211.547 46.6914C211.141 46.8711 210.836 47.1172 210.633 47.4297C210.43 47.7344 210.328 48.0781 210.328 48.4609C210.328 48.75 210.398 49.0117 210.539 49.2461C210.688 49.4805 210.906 49.6992 211.195 49.9023C211.484 50.1055 211.84 50.2969 212.262 50.4766C212.684 50.6562 213.172 50.832 213.727 51.0039C214.656 51.2852 215.473 51.6016 216.176 51.9531C216.887 52.3047 217.48 52.6992 217.957 53.1367C218.434 53.5742 218.793 54.0703 219.035 54.625C219.277 55.1797 219.398 55.8086 219.398 56.5117C219.398 57.2539 219.254 57.918 218.965 58.5039C218.676 59.0898 218.258 59.5859 217.711 59.9922C217.164 60.3984 216.512 60.707 215.754 60.918C214.996 61.1289 214.148 61.2344 213.211 61.2344C212.367 61.2344 211.535 61.125 210.715 60.9062C209.895 60.6797 209.148 60.3398 208.477 59.8867C207.812 59.4336 207.281 58.8555 206.883 58.1523C206.484 57.4492 206.285 56.6172 206.285 55.6562H209.812C209.812 56.1875 209.895 56.6367 210.059 57.0039C210.223 57.3711 210.453 57.668 210.75 57.8945C211.055 58.1211 211.414 58.2852 211.828 58.3867C212.25 58.4883 212.711 58.5391 213.211 58.5391C213.82 58.5391 214.32 58.4531 214.711 58.2812C215.109 58.1094 215.402 57.8711 215.59 57.5664C215.785 57.2617 215.883 56.918 215.883 56.5352ZM227.414 61.2344C226.43 61.2344 225.547 61.0781 224.766 60.7656C223.984 60.4453 223.32 60.0039 222.773 59.4414C222.234 58.8789 221.82 58.2266 221.531 57.4844C221.242 56.7344 221.098 55.9375 221.098 55.0938V54.625C221.098 53.6641 221.234 52.7852 221.508 51.9883C221.781 51.1914 222.172 50.5 222.68 49.9141C223.195 49.3281 223.82 48.8789 224.555 48.5664C225.289 48.2461 226.117 48.0859 227.039 48.0859C227.938 48.0859 228.734 48.2344 229.43 48.5312C230.125 48.8281 230.707 49.25 231.176 49.7969C231.652 50.3438 232.012 51 232.254 51.7656C232.496 52.5234 232.617 53.3672 232.617 54.2969V55.7031H222.539V53.4531H229.301V53.1953C229.301 52.7266 229.215 52.3086 229.043 51.9414C228.879 51.5664 228.629 51.2695 228.293 51.0508C227.957 50.832 227.527 50.7227 227.004 50.7227C226.559 50.7227 226.176 50.8203 225.855 51.0156C225.535 51.2109 225.273 51.4844 225.07 51.8359C224.875 52.1875 224.727 52.6016 224.625 53.0781C224.531 53.5469 224.484 54.0625 224.484 54.625V55.0938C224.484 55.6016 224.555 56.0703 224.695 56.5C224.844 56.9297 225.051 57.3008 225.316 57.6133C225.59 57.9258 225.918 58.168 226.301 58.3398C226.691 58.5117 227.133 58.5977 227.625 58.5977C228.234 58.5977 228.801 58.4805 229.324 58.2461C229.855 58.0039 230.312 57.6406 230.695 57.1562L232.336 58.9375C232.07 59.3203 231.707 59.6875 231.246 60.0391C230.793 60.3906 230.246 60.6797 229.605 60.9062C228.965 61.125 228.234 61.2344 227.414 61.2344ZM237.914 51.0859V61H234.539V48.3203H237.715L237.914 51.0859ZM241.734 48.2383L241.676 51.3672C241.512 51.3438 241.312 51.3242 241.078 51.3086C240.852 51.2852 240.645 51.2734 240.457 51.2734C239.98 51.2734 239.566 51.3359 239.215 51.4609C238.871 51.5781 238.582 51.7539 238.348 51.9883C238.121 52.2227 237.949 52.5078 237.832 52.8438C237.723 53.1797 237.66 53.5625 237.645 53.9922L236.965 53.7812C236.965 52.9609 237.047 52.207 237.211 51.5195C237.375 50.8242 237.613 50.2188 237.926 49.7031C238.246 49.1875 238.637 48.7891 239.098 48.5078C239.559 48.2266 240.086 48.0859 240.68 48.0859C240.867 48.0859 241.059 48.1016 241.254 48.1328C241.449 48.1562 241.609 48.1914 241.734 48.2383ZM247.852 58.5391L250.664 48.3203H254.191L249.914 61H247.781L247.852 58.5391ZM245.918 48.3203L248.742 58.5508L248.801 61H246.656L242.379 48.3203H245.918ZM261.375 61.2344C260.391 61.2344 259.508 61.0781 258.727 60.7656C257.945 60.4453 257.281 60.0039 256.734 59.4414C256.195 58.8789 255.781 58.2266 255.492 57.4844C255.203 56.7344 255.059 55.9375 255.059 55.0938V54.625C255.059 53.6641 255.195 52.7852 255.469 51.9883C255.742 51.1914 256.133 50.5 256.641 49.9141C257.156 49.3281 257.781 48.8789 258.516 48.5664C259.25 48.2461 260.078 48.0859 261 48.0859C261.898 48.0859 262.695 48.2344 263.391 48.5312C264.086 48.8281 264.668 49.25 265.137 49.7969C265.613 50.3438 265.973 51 266.215 51.7656C266.457 52.5234 266.578 53.3672 266.578 54.2969V55.7031H256.5V53.4531H263.262V53.1953C263.262 52.7266 263.176 52.3086 263.004 51.9414C262.84 51.5664 262.59 51.2695 262.254 51.0508C261.918 50.832 261.488 50.7227 260.965 50.7227C260.52 50.7227 260.137 50.8203 259.816 51.0156C259.496 51.2109 259.234 51.4844 259.031 51.8359C258.836 52.1875 258.688 52.6016 258.586 53.0781C258.492 53.5469 258.445 54.0625 258.445 54.625V55.0938C258.445 55.6016 258.516 56.0703 258.656 56.5C258.805 56.9297 259.012 57.3008 259.277 57.6133C259.551 57.9258 259.879 58.168 260.262 58.3398C260.652 58.5117 261.094 58.5977 261.586 58.5977C262.195 58.5977 262.762 58.4805 263.285 58.2461C263.816 58.0039 264.273 57.6406 264.656 57.1562L266.297 58.9375C266.031 59.3203 265.668 59.6875 265.207 60.0391C264.754 60.3906 264.207 60.6797 263.566 60.9062C262.926 61.125 262.195 61.2344 261.375 61.2344ZM271.875 51.0859V61H268.5V48.3203H271.676L271.875 51.0859ZM275.695 48.2383L275.637 51.3672C275.473 51.3438 275.273 51.3242 275.039 51.3086C274.812 51.2852 274.605 51.2734 274.418 51.2734C273.941 51.2734 273.527 51.3359 273.176 51.4609C272.832 51.5781 272.543 51.7539 272.309 51.9883C272.082 52.2227 271.91 52.5078 271.793 52.8438C271.684 53.1797 271.621 53.5625 271.605 53.9922L270.926 53.7812C270.926 52.9609 271.008 52.207 271.172 51.5195C271.336 50.8242 271.574 50.2188 271.887 49.7031C272.207 49.1875 272.598 48.7891 273.059 48.5078C273.52 48.2266 274.047 48.0859 274.641 48.0859C274.828 48.0859 275.02 48.1016 275.215 48.1328C275.41 48.1562 275.57 48.1914 275.695 48.2383Z" fill="#888888"/>
<path d="M114.117 84.875H122.344V107.164C122.344 109.82 121.789 112.07 120.68 113.914C119.57 115.742 118.016 117.125 116.016 118.062C114.016 119 111.664 119.469 108.961 119.469C106.289 119.469 103.938 119 101.906 118.062C99.8906 117.125 98.3125 115.742 97.1719 113.914C96.0469 112.07 95.4844 109.82 95.4844 107.164V84.875H103.734V107.164C103.734 108.57 103.938 109.719 104.344 110.609C104.75 111.484 105.344 112.125 106.125 112.531C106.906 112.938 107.852 113.141 108.961 113.141C110.086 113.141 111.031 112.938 111.797 112.531C112.562 112.125 113.141 111.484 113.531 110.609C113.922 109.719 114.117 108.57 114.117 107.164V84.875ZM134.906 99.0547V119H127.008V93.6406H134.414L134.906 99.0547ZM133.969 105.453L132.117 105.5C132.117 103.562 132.352 101.836 132.82 100.32C133.289 98.7891 133.953 97.4922 134.812 96.4297C135.672 95.3672 136.695 94.5625 137.883 94.0156C139.086 93.4531 140.422 93.1719 141.891 93.1719C143.062 93.1719 144.133 93.3438 145.102 93.6875C146.086 94.0312 146.93 94.5859 147.633 95.3516C148.352 96.1172 148.898 97.1328 149.273 98.3984C149.664 99.6484 149.859 101.195 149.859 103.039V119H141.914V103.016C141.914 102 141.773 101.227 141.492 100.695C141.211 100.148 140.805 99.7734 140.273 99.5703C139.742 99.3672 139.094 99.2656 138.328 99.2656C137.516 99.2656 136.828 99.4219 136.266 99.7344C135.703 100.047 135.25 100.484 134.906 101.047C134.578 101.594 134.336 102.242 134.18 102.992C134.039 103.742 133.969 104.562 133.969 105.453ZM162.586 93.6406V119H154.664V93.6406H162.586ZM154.195 87.1016C154.195 85.9766 154.602 85.0547 155.414 84.3359C156.227 83.6172 157.281 83.2578 158.578 83.2578C159.875 83.2578 160.93 83.6172 161.742 84.3359C162.555 85.0547 162.961 85.9766 162.961 87.1016C162.961 88.2266 162.555 89.1484 161.742 89.8672C160.93 90.5859 159.875 90.9453 158.578 90.9453C157.281 90.9453 156.227 90.5859 155.414 89.8672C154.602 89.1484 154.195 88.2266 154.195 87.1016ZM180.82 93.6406V99.125H165.539V93.6406H180.82ZM168.75 87.3359H176.648V110.727C176.648 111.398 176.727 111.922 176.883 112.297C177.039 112.656 177.305 112.914 177.68 113.07C178.07 113.211 178.586 113.281 179.227 113.281C179.68 113.281 180.055 113.273 180.352 113.258C180.648 113.227 180.93 113.188 181.195 113.141V118.789C180.523 119.008 179.82 119.172 179.086 119.281C178.352 119.406 177.57 119.469 176.742 119.469C175.055 119.469 173.609 119.203 172.406 118.672C171.219 118.141 170.312 117.305 169.688 116.164C169.062 115.023 168.75 113.539 168.75 111.711V87.3359ZM211.406 84.875V119H203.18V84.875H211.406ZM221.672 84.875V91.2266H193.148V84.875H221.672ZM234.961 119.469C232.898 119.469 231.055 119.148 229.43 118.508C227.805 117.852 226.43 116.953 225.305 115.812C224.195 114.672 223.344 113.359 222.75 111.875C222.172 110.391 221.883 108.82 221.883 107.164V106.273C221.883 104.414 222.141 102.695 222.656 101.117C223.172 99.5234 223.938 98.1328 224.953 96.9453C225.969 95.7578 227.242 94.8359 228.773 94.1797C230.305 93.5078 232.086 93.1719 234.117 93.1719C235.914 93.1719 237.523 93.4609 238.945 94.0391C240.367 94.6172 241.57 95.4453 242.555 96.5234C243.555 97.6016 244.312 98.9062 244.828 100.438C245.359 101.969 245.625 103.688 245.625 105.594V108.805H224.906V103.859H237.914V103.25C237.93 102.406 237.781 101.688 237.469 101.094C237.172 100.5 236.734 100.047 236.156 99.7344C235.578 99.4219 234.875 99.2656 234.047 99.2656C233.188 99.2656 232.477 99.4531 231.914 99.8281C231.367 100.203 230.938 100.719 230.625 101.375C230.328 102.016 230.117 102.758 229.992 103.602C229.867 104.445 229.805 105.336 229.805 106.273V107.164C229.805 108.102 229.93 108.953 230.18 109.719C230.445 110.484 230.82 111.141 231.305 111.688C231.805 112.219 232.398 112.633 233.086 112.93C233.789 113.227 234.586 113.375 235.477 113.375C236.555 113.375 237.617 113.172 238.664 112.766C239.711 112.359 240.609 111.688 241.359 110.75L244.945 115.016C244.43 115.75 243.695 116.461 242.742 117.148C241.805 117.836 240.68 118.398 239.367 118.836C238.055 119.258 236.586 119.469 234.961 119.469ZM262.125 111.875C262.125 111.438 261.977 111.062 261.68 110.75C261.398 110.422 260.898 110.125 260.18 109.859C259.461 109.578 258.453 109.297 257.156 109.016C255.922 108.75 254.758 108.398 253.664 107.961C252.586 107.523 251.641 106.992 250.828 106.367C250.016 105.742 249.375 105 248.906 104.141C248.453 103.281 248.227 102.297 248.227 101.188C248.227 100.109 248.453 99.0938 248.906 98.1406C249.375 97.1719 250.055 96.3203 250.945 95.5859C251.852 94.8359 252.953 94.25 254.25 93.8281C255.547 93.3906 257.023 93.1719 258.68 93.1719C260.961 93.1719 262.93 93.5234 264.586 94.2266C266.242 94.9141 267.516 95.8828 268.406 97.1328C269.312 98.3672 269.766 99.7969 269.766 101.422H261.867C261.867 100.781 261.758 100.234 261.539 99.7812C261.336 99.3281 261 98.9844 260.531 98.75C260.062 98.5 259.438 98.375 258.656 98.375C258.109 98.375 257.609 98.4766 257.156 98.6797C256.719 98.8828 256.367 99.1641 256.102 99.5234C255.836 99.8828 255.703 100.305 255.703 100.789C255.703 101.133 255.781 101.445 255.938 101.727C256.109 101.992 256.367 102.242 256.711 102.477C257.055 102.695 257.492 102.898 258.023 103.086C258.555 103.258 259.195 103.414 259.945 103.555C261.648 103.867 263.242 104.312 264.727 104.891C266.211 105.469 267.414 106.289 268.336 107.352C269.273 108.414 269.742 109.844 269.742 111.641C269.742 112.766 269.484 113.805 268.969 114.758C268.453 115.695 267.711 116.523 266.742 117.242C265.773 117.945 264.609 118.492 263.25 118.883C261.891 119.273 260.359 119.469 258.656 119.469C256.234 119.469 254.188 119.039 252.516 118.18C250.844 117.305 249.578 116.211 248.719 114.898C247.875 113.57 247.453 112.227 247.453 110.867H254.812C254.844 111.648 255.031 112.289 255.375 112.789C255.734 113.289 256.211 113.656 256.805 113.891C257.398 114.125 258.086 114.242 258.867 114.242C259.586 114.242 260.18 114.141 260.648 113.938C261.133 113.734 261.5 113.461 261.75 113.117C262 112.758 262.125 112.344 262.125 111.875ZM286.805 93.6406V99.125H271.523V93.6406H286.805ZM274.734 87.3359H282.633V110.727C282.633 111.398 282.711 111.922 282.867 112.297C283.023 112.656 283.289 112.914 283.664 113.07C284.055 113.211 284.57 113.281 285.211 113.281C285.664 113.281 286.039 113.273 286.336 113.258C286.633 113.227 286.914 113.188 287.18 113.141V118.789C286.508 119.008 285.805 119.172 285.07 119.281C284.336 119.406 283.555 119.469 282.727 119.469C281.039 119.469 279.594 119.203 278.391 118.672C277.203 118.141 276.297 117.305 275.672 116.164C275.047 115.023 274.734 113.539 274.734 111.711V87.3359ZM298.289 93.6406V119H290.367V93.6406H298.289ZM289.898 87.1016C289.898 85.9766 290.305 85.0547 291.117 84.3359C291.93 83.6172 292.984 83.2578 294.281 83.2578C295.578 83.2578 296.633 83.6172 297.445 84.3359C298.258 85.0547 298.664 85.9766 298.664 87.1016C298.664 88.2266 298.258 89.1484 297.445 89.8672C296.633 90.5859 295.578 90.9453 294.281 90.9453C292.984 90.9453 291.93 90.5859 291.117 89.8672C290.305 89.1484 289.898 88.2266 289.898 87.1016ZM310.922 99.0547V119H303.023V93.6406H310.43L310.922 99.0547ZM309.984 105.453L308.133 105.5C308.133 103.562 308.367 101.836 308.836 100.32C309.305 98.7891 309.969 97.4922 310.828 96.4297C311.688 95.3672 312.711 94.5625 313.898 94.0156C315.102 93.4531 316.438 93.1719 317.906 93.1719C319.078 93.1719 320.148 93.3438 321.117 93.6875C322.102 94.0312 322.945 94.5859 323.648 95.3516C324.367 96.1172 324.914 97.1328 325.289 98.3984C325.68 99.6484 325.875 101.195 325.875 103.039V119H317.93V103.016C317.93 102 317.789 101.227 317.508 100.695C317.227 100.148 316.82 99.7734 316.289 99.5703C315.758 99.3672 315.109 99.2656 314.344 99.2656C313.531 99.2656 312.844 99.4219 312.281 99.7344C311.719 100.047 311.266 100.484 310.922 101.047C310.594 101.594 310.352 102.242 310.195 102.992C310.055 103.742 309.984 104.562 309.984 105.453ZM346.195 93.6406H353.367V118.016C353.367 120.359 352.828 122.344 351.75 123.969C350.672 125.609 349.164 126.852 347.227 127.695C345.305 128.555 343.055 128.984 340.477 128.984C339.336 128.984 338.172 128.836 336.984 128.539C335.797 128.258 334.688 127.836 333.656 127.273C332.625 126.711 331.758 126.016 331.055 125.188L334.359 120.547C335 121.266 335.805 121.875 336.773 122.375C337.742 122.891 338.883 123.148 340.195 123.148C341.336 123.148 342.289 122.945 343.055 122.539C343.836 122.133 344.43 121.539 344.836 120.758C345.242 119.992 345.445 119.062 345.445 117.969V99.6406L346.195 93.6406ZM329.344 106.625V106.133C329.344 104.211 329.578 102.461 330.047 100.883C330.531 99.2891 331.219 97.9219 332.109 96.7812C333.016 95.625 334.109 94.7344 335.391 94.1094C336.672 93.4844 338.117 93.1719 339.727 93.1719C341.461 93.1719 342.883 93.5078 343.992 94.1797C345.117 94.8359 346.016 95.7578 346.688 96.9453C347.375 98.1328 347.906 99.5234 348.281 101.117C348.672 102.695 349 104.398 349.266 106.227V106.812C349 108.531 348.633 110.156 348.164 111.688C347.711 113.203 347.117 114.547 346.383 115.719C345.648 116.891 344.727 117.812 343.617 118.484C342.523 119.141 341.211 119.469 339.68 119.469C338.086 119.469 336.648 119.148 335.367 118.508C334.102 117.867 333.016 116.969 332.109 115.812C331.219 114.656 330.531 113.297 330.047 111.734C329.578 110.172 329.344 108.469 329.344 106.625ZM337.242 106.133V106.625C337.242 107.578 337.328 108.461 337.5 109.273C337.688 110.086 337.969 110.805 338.344 111.43C338.719 112.039 339.18 112.516 339.727 112.859C340.289 113.203 340.945 113.375 341.695 113.375C342.836 113.375 343.758 113.133 344.461 112.648C345.164 112.164 345.672 111.477 345.984 110.586C346.297 109.695 346.43 108.648 346.383 107.445V105.594C346.414 104.562 346.344 103.656 346.172 102.875C346 102.078 345.727 101.414 345.352 100.883C344.992 100.352 344.508 99.9531 343.898 99.6875C343.305 99.4062 342.586 99.2656 341.742 99.2656C341.008 99.2656 340.359 99.4375 339.797 99.7812C339.234 100.125 338.766 100.609 338.391 101.234C338.016 101.844 337.727 102.57 337.523 103.414C337.336 104.242 337.242 105.148 337.242 106.133Z" fill="black"/>
<path d="M1134 0H1348C1356.28 0 1363 6.71573 1363 15V148C1363 156.284 1356.28 163 1348 163H1134V0Z" fill="#289DD2"/>
<path d="M1210.62 43.625H1286.38V119.375H1210.62V43.625Z" fill="white" fill-opacity="0.01"/>
<path d="M1276.91 72.0312V105.172C1276.91 107.787 1274.79 109.906 1272.17 109.906H1224.83C1222.21 109.906 1220.09 107.787 1220.09 105.172V57.8281C1220.09 55.2134 1222.21 53.0938 1224.83 53.0938H1261.12" stroke="white" stroke-width="7.24" stroke-linecap="round" stroke-linejoin="round"/>
<path d="M1232.72 75.1875L1248.5 87.8125L1276.91 53.0938" stroke="white" stroke-width="7.24" stroke-linecap="round" stroke-linejoin="round"/>
</svg>
