<svg width="1363" height="163" viewBox="0 0 1363 163" fill="none" xmlns="http://www.w3.org/2000/svg">
<path d="M0 15C0 6.71573 6.71573 0 15 0H37V163H15C6.71573 163 0 156.284 0 148V15Z" fill="#424242"/>
<rect width="1097" height="163" transform="translate(37)" fill="#F0F0F0"/>
<path d="M101.906 53.9219L94.3945 51.2383V48.0859L104.602 52.375V54.6367L101.906 53.9219ZM94.3945 56.1719L101.918 53.4297L104.602 52.7852V55.0352L94.3945 59.3242V56.1719ZM119.836 46.8555L115.195 61H111.457L117.797 43.9375H120.176L119.836 46.8555ZM123.691 61L119.039 46.8555L118.664 43.9375H121.066L127.441 61H123.691ZM123.48 54.6484V57.4023H114.469V54.6484H123.48ZM134.648 61.2344C133.664 61.2344 132.781 61.0781 132 60.7656C131.219 60.4453 130.555 60.0039 130.008 59.4414C129.469 58.8789 129.055 58.2266 128.766 57.4844C128.477 56.7344 128.332 55.9375 128.332 55.0938V54.625C128.332 53.6641 128.469 52.7852 128.742 51.9883C129.016 51.1914 129.406 50.5 129.914 49.9141C130.43 49.3281 131.055 48.8789 131.789 48.5664C132.523 48.2461 133.352 48.0859 134.273 48.0859C135.172 48.0859 135.969 48.2344 136.664 48.5312C137.359 48.8281 137.941 49.25 138.41 49.7969C138.887 50.3438 139.246 51 139.488 51.7656C139.73 52.5234 139.852 53.3672 139.852 54.2969V55.7031H129.773V53.4531H136.535V53.1953C136.535 52.7266 136.449 52.3086 136.277 51.9414C136.113 51.5664 135.863 51.2695 135.527 51.0508C135.191 50.832 134.762 50.7227 134.238 50.7227C133.793 50.7227 133.41 50.8203 133.09 51.0156C132.77 51.2109 132.508 51.4844 132.305 51.8359C132.109 52.1875 131.961 52.6016 131.859 53.0781C131.766 53.5469 131.719 54.0625 131.719 54.625V55.0938C131.719 55.6016 131.789 56.0703 131.93 56.5C132.078 56.9297 132.285 57.3008 132.551 57.6133C132.824 57.9258 133.152 58.168 133.535 58.3398C133.926 58.5117 134.367 58.5977 134.859 58.5977C135.469 58.5977 136.035 58.4805 136.559 58.2461C137.09 58.0039 137.547 57.6406 137.93 57.1562L139.57 58.9375C139.305 59.3203 138.941 59.6875 138.48 60.0391C138.027 60.3906 137.48 60.6797 136.84 60.9062C136.199 61.125 135.469 61.2344 134.648 61.2344ZM149.801 48.3203H152.859V60.5781C152.859 61.7344 152.602 62.7148 152.086 63.5195C151.578 64.332 150.867 64.9453 149.953 65.3594C149.039 65.7812 147.977 65.9922 146.766 65.9922C146.234 65.9922 145.672 65.9219 145.078 65.7812C144.492 65.6406 143.93 65.4219 143.391 65.125C142.859 64.8281 142.414 64.4531 142.055 64L143.543 62.0078C143.934 62.4609 144.387 62.8125 144.902 63.0625C145.418 63.3203 145.988 63.4492 146.613 63.4492C147.223 63.4492 147.738 63.3359 148.16 63.1094C148.582 62.8906 148.906 62.5664 149.133 62.1367C149.359 61.7148 149.473 61.2031 149.473 60.6016V51.25L149.801 48.3203ZM141.27 54.8125V54.5664C141.27 53.5977 141.387 52.7188 141.621 51.9297C141.863 51.1328 142.203 50.4492 142.641 49.8789C143.086 49.3086 143.625 48.8672 144.258 48.5547C144.891 48.2422 145.605 48.0859 146.402 48.0859C147.246 48.0859 147.953 48.2422 148.523 48.5547C149.094 48.8672 149.562 49.3125 149.93 49.8906C150.297 50.4609 150.582 51.1367 150.785 51.918C150.996 52.6914 151.16 53.5391 151.277 54.4609V55C151.16 55.8828 150.984 56.7031 150.75 57.4609C150.516 58.2188 150.207 58.8828 149.824 59.4531C149.441 60.0156 148.965 60.4531 148.395 60.7656C147.832 61.0781 147.16 61.2344 146.379 61.2344C145.598 61.2344 144.891 61.0742 144.258 60.7539C143.633 60.4336 143.098 59.9844 142.652 59.4062C142.207 58.8281 141.863 58.1484 141.621 57.3672C141.387 56.5859 141.27 55.7344 141.27 54.8125ZM144.645 54.5664V54.8125C144.645 55.3359 144.695 55.8242 144.797 56.2773C144.898 56.7305 145.055 57.1328 145.266 57.4844C145.484 57.8281 145.754 58.0977 146.074 58.293C146.402 58.4805 146.789 58.5742 147.234 58.5742C147.852 58.5742 148.355 58.4453 148.746 58.1875C149.137 57.9219 149.43 57.5586 149.625 57.0977C149.82 56.6367 149.934 56.1055 149.965 55.5039V53.9688C149.949 53.4766 149.883 53.0352 149.766 52.6445C149.648 52.2461 149.484 51.9062 149.273 51.625C149.062 51.3438 148.789 51.125 148.453 50.9688C148.117 50.8125 147.719 50.7344 147.258 50.7344C146.812 50.7344 146.426 50.8359 146.098 51.0391C145.777 51.2344 145.508 51.5039 145.289 51.8477C145.078 52.1914 144.918 52.5977 144.809 53.0664C144.699 53.5273 144.645 54.0273 144.645 54.5664ZM159.047 48.3203V61H155.66V48.3203H159.047ZM155.449 45.0156C155.449 44.5234 155.621 44.1172 155.965 43.7969C156.309 43.4766 156.77 43.3164 157.348 43.3164C157.918 43.3164 158.375 43.4766 158.719 43.7969C159.07 44.1172 159.246 44.5234 159.246 45.0156C159.246 45.5078 159.07 45.9141 158.719 46.2344C158.375 46.5547 157.918 46.7148 157.348 46.7148C156.77 46.7148 156.309 46.5547 155.965 46.2344C155.621 45.9141 155.449 45.5078 155.449 45.0156ZM168.691 57.4961C168.691 57.2539 168.621 57.0352 168.48 56.8398C168.34 56.6445 168.078 56.4648 167.695 56.3008C167.32 56.1289 166.777 55.9727 166.066 55.832C165.426 55.6914 164.828 55.5156 164.273 55.3047C163.727 55.0859 163.25 54.8242 162.844 54.5195C162.445 54.2148 162.133 53.8555 161.906 53.4414C161.68 53.0195 161.566 52.5391 161.566 52C161.566 51.4688 161.68 50.9688 161.906 50.5C162.141 50.0312 162.473 49.6172 162.902 49.2578C163.34 48.8906 163.871 48.6055 164.496 48.4023C165.129 48.1914 165.84 48.0859 166.629 48.0859C167.73 48.0859 168.676 48.2617 169.465 48.6133C170.262 48.9648 170.871 49.4492 171.293 50.0664C171.723 50.6758 171.938 51.3711 171.938 52.1523H168.562C168.562 51.8242 168.492 51.5312 168.352 51.2734C168.219 51.0078 168.008 50.8008 167.719 50.6523C167.438 50.4961 167.07 50.418 166.617 50.418C166.242 50.418 165.918 50.4844 165.645 50.6172C165.371 50.7422 165.16 50.9141 165.012 51.1328C164.871 51.3438 164.801 51.5781 164.801 51.8359C164.801 52.0312 164.84 52.207 164.918 52.3633C165.004 52.5117 165.141 52.6484 165.328 52.7734C165.516 52.8984 165.758 53.0156 166.055 53.125C166.359 53.2266 166.734 53.3203 167.18 53.4062C168.094 53.5938 168.91 53.8398 169.629 54.1445C170.348 54.4414 170.918 54.8477 171.34 55.3633C171.762 55.8711 171.973 56.5391 171.973 57.3672C171.973 57.9297 171.848 58.4453 171.598 58.9141C171.348 59.3828 170.988 59.793 170.52 60.1445C170.051 60.4883 169.488 60.7578 168.832 60.9531C168.184 61.1406 167.453 61.2344 166.641 61.2344C165.461 61.2344 164.461 61.0234 163.641 60.6016C162.828 60.1797 162.211 59.6445 161.789 58.9961C161.375 58.3398 161.168 57.668 161.168 56.9805H164.367C164.383 57.4414 164.5 57.8125 164.719 58.0938C164.945 58.375 165.23 58.5781 165.574 58.7031C165.926 58.8281 166.305 58.8906 166.711 58.8906C167.148 58.8906 167.512 58.832 167.801 58.7148C168.09 58.5898 168.309 58.4258 168.457 58.2227C168.613 58.0117 168.691 57.7695 168.691 57.4961ZM181.312 46.8555L176.672 61H172.934L179.273 43.9375H181.652L181.312 46.8555ZM185.168 61L180.516 46.8555L180.141 43.9375H182.543L188.918 61H185.168ZM184.957 54.6484V57.4023H175.945V54.6484H184.957ZM194.238 43.9375V61H190.734V43.9375H194.238ZM203.977 52.3516V55H197.355V52.3516H203.977ZM215.883 56.5352C215.883 56.2305 215.836 55.957 215.742 55.7148C215.656 55.4648 215.492 55.2383 215.25 55.0352C215.008 54.8242 214.668 54.6172 214.23 54.4141C213.793 54.2109 213.227 54 212.531 53.7812C211.758 53.5312 211.023 53.25 210.328 52.9375C209.641 52.625 209.031 52.2617 208.5 51.8477C207.977 51.4258 207.562 50.9375 207.258 50.3828C206.961 49.8281 206.812 49.1836 206.812 48.4492C206.812 47.7383 206.969 47.0938 207.281 46.5156C207.594 45.9297 208.031 45.4297 208.594 45.0156C209.156 44.5938 209.82 44.2695 210.586 44.043C211.359 43.8164 212.207 43.7031 213.129 43.7031C214.387 43.7031 215.484 43.9297 216.422 44.3828C217.359 44.8359 218.086 45.457 218.602 46.2461C219.125 47.0352 219.387 47.9375 219.387 48.9531H215.895C215.895 48.4531 215.789 48.0156 215.578 47.6406C215.375 47.2578 215.062 46.957 214.641 46.7383C214.227 46.5195 213.703 46.4102 213.07 46.4102C212.461 46.4102 211.953 46.5039 211.547 46.6914C211.141 46.8711 210.836 47.1172 210.633 47.4297C210.43 47.7344 210.328 48.0781 210.328 48.4609C210.328 48.75 210.398 49.0117 210.539 49.2461C210.688 49.4805 210.906 49.6992 211.195 49.9023C211.484 50.1055 211.84 50.2969 212.262 50.4766C212.684 50.6562 213.172 50.832 213.727 51.0039C214.656 51.2852 215.473 51.6016 216.176 51.9531C216.887 52.3047 217.48 52.6992 217.957 53.1367C218.434 53.5742 218.793 54.0703 219.035 54.625C219.277 55.1797 219.398 55.8086 219.398 56.5117C219.398 57.2539 219.254 57.918 218.965 58.5039C218.676 59.0898 218.258 59.5859 217.711 59.9922C217.164 60.3984 216.512 60.707 215.754 60.918C214.996 61.1289 214.148 61.2344 213.211 61.2344C212.367 61.2344 211.535 61.125 210.715 60.9062C209.895 60.6797 209.148 60.3398 208.477 59.8867C207.812 59.4336 207.281 58.8555 206.883 58.1523C206.484 57.4492 206.285 56.6172 206.285 55.6562H209.812C209.812 56.1875 209.895 56.6367 210.059 57.0039C210.223 57.3711 210.453 57.668 210.75 57.8945C211.055 58.1211 211.414 58.2852 211.828 58.3867C212.25 58.4883 212.711 58.5391 213.211 58.5391C213.82 58.5391 214.32 58.4531 214.711 58.2812C215.109 58.1094 215.402 57.8711 215.59 57.5664C215.785 57.2617 215.883 56.918 215.883 56.5352ZM227.414 61.2344C226.43 61.2344 225.547 61.0781 224.766 60.7656C223.984 60.4453 223.32 60.0039 222.773 59.4414C222.234 58.8789 221.82 58.2266 221.531 57.4844C221.242 56.7344 221.098 55.9375 221.098 55.0938V54.625C221.098 53.6641 221.234 52.7852 221.508 51.9883C221.781 51.1914 222.172 50.5 222.68 49.9141C223.195 49.3281 223.82 48.8789 224.555 48.5664C225.289 48.2461 226.117 48.0859 227.039 48.0859C227.938 48.0859 228.734 48.2344 229.43 48.5312C230.125 48.8281 230.707 49.25 231.176 49.7969C231.652 50.3438 232.012 51 232.254 51.7656C232.496 52.5234 232.617 53.3672 232.617 54.2969V55.7031H222.539V53.4531H229.301V53.1953C229.301 52.7266 229.215 52.3086 229.043 51.9414C228.879 51.5664 228.629 51.2695 228.293 51.0508C227.957 50.832 227.527 50.7227 227.004 50.7227C226.559 50.7227 226.176 50.8203 225.855 51.0156C225.535 51.2109 225.273 51.4844 225.07 51.8359C224.875 52.1875 224.727 52.6016 224.625 53.0781C224.531 53.5469 224.484 54.0625 224.484 54.625V55.0938C224.484 55.6016 224.555 56.0703 224.695 56.5C224.844 56.9297 225.051 57.3008 225.316 57.6133C225.59 57.9258 225.918 58.168 226.301 58.3398C226.691 58.5117 227.133 58.5977 227.625 58.5977C228.234 58.5977 228.801 58.4805 229.324 58.2461C229.855 58.0039 230.312 57.6406 230.695 57.1562L232.336 58.9375C232.07 59.3203 231.707 59.6875 231.246 60.0391C230.793 60.3906 230.246 60.6797 229.605 60.9062C228.965 61.125 228.234 61.2344 227.414 61.2344ZM237.914 51.0859V61H234.539V48.3203H237.715L237.914 51.0859ZM241.734 48.2383L241.676 51.3672C241.512 51.3438 241.312 51.3242 241.078 51.3086C240.852 51.2852 240.645 51.2734 240.457 51.2734C239.98 51.2734 239.566 51.3359 239.215 51.4609C238.871 51.5781 238.582 51.7539 238.348 51.9883C238.121 52.2227 237.949 52.5078 237.832 52.8438C237.723 53.1797 237.66 53.5625 237.645 53.9922L236.965 53.7812C236.965 52.9609 237.047 52.207 237.211 51.5195C237.375 50.8242 237.613 50.2188 237.926 49.7031C238.246 49.1875 238.637 48.7891 239.098 48.5078C239.559 48.2266 240.086 48.0859 240.68 48.0859C240.867 48.0859 241.059 48.1016 241.254 48.1328C241.449 48.1562 241.609 48.1914 241.734 48.2383ZM247.852 58.5391L250.664 48.3203H254.191L249.914 61H247.781L247.852 58.5391ZM245.918 48.3203L248.742 58.5508L248.801 61H246.656L242.379 48.3203H245.918ZM261.375 61.2344C260.391 61.2344 259.508 61.0781 258.727 60.7656C257.945 60.4453 257.281 60.0039 256.734 59.4414C256.195 58.8789 255.781 58.2266 255.492 57.4844C255.203 56.7344 255.059 55.9375 255.059 55.0938V54.625C255.059 53.6641 255.195 52.7852 255.469 51.9883C255.742 51.1914 256.133 50.5 256.641 49.9141C257.156 49.3281 257.781 48.8789 258.516 48.5664C259.25 48.2461 260.078 48.0859 261 48.0859C261.898 48.0859 262.695 48.2344 263.391 48.5312C264.086 48.8281 264.668 49.25 265.137 49.7969C265.613 50.3438 265.973 51 266.215 51.7656C266.457 52.5234 266.578 53.3672 266.578 54.2969V55.7031H256.5V53.4531H263.262V53.1953C263.262 52.7266 263.176 52.3086 263.004 51.9414C262.84 51.5664 262.59 51.2695 262.254 51.0508C261.918 50.832 261.488 50.7227 260.965 50.7227C260.52 50.7227 260.137 50.8203 259.816 51.0156C259.496 51.2109 259.234 51.4844 259.031 51.8359C258.836 52.1875 258.688 52.6016 258.586 53.0781C258.492 53.5469 258.445 54.0625 258.445 54.625V55.0938C258.445 55.6016 258.516 56.0703 258.656 56.5C258.805 56.9297 259.012 57.3008 259.277 57.6133C259.551 57.9258 259.879 58.168 260.262 58.3398C260.652 58.5117 261.094 58.5977 261.586 58.5977C262.195 58.5977 262.762 58.4805 263.285 58.2461C263.816 58.0039 264.273 57.6406 264.656 57.1562L266.297 58.9375C266.031 59.3203 265.668 59.6875 265.207 60.0391C264.754 60.3906 264.207 60.6797 263.566 60.9062C262.926 61.125 262.195 61.2344 261.375 61.2344ZM271.875 51.0859V61H268.5V48.3203H271.676L271.875 51.0859ZM275.695 48.2383L275.637 51.3672C275.473 51.3438 275.273 51.3242 275.039 51.3086C274.812 51.2852 274.605 51.2734 274.418 51.2734C273.941 51.2734 273.527 51.3359 273.176 51.4609C272.832 51.5781 272.543 51.7539 272.309 51.9883C272.082 52.2227 271.91 52.5078 271.793 52.8438C271.684 53.1797 271.621 53.5625 271.605 53.9922L270.926 53.7812C270.926 52.9609 271.008 52.207 271.172 51.5195C271.336 50.8242 271.574 50.2188 271.887 49.7031C272.207 49.1875 272.598 48.7891 273.059 48.5078C273.52 48.2266 274.047 48.0859 274.641 48.0859C274.828 48.0859 275.02 48.1016 275.215 48.1328C275.41 48.1562 275.57 48.1914 275.695 48.2383Z" fill="#888888"/>
<path d="M110.062 92.0469L101.742 119H92.9062L105.445 84.875H111.047L110.062 92.0469ZM116.953 119L108.609 92.0469L107.531 84.875H113.203L125.812 119H116.953ZM116.625 106.273V112.625H99.1172V106.273H116.625ZM135.258 115.906L142.055 84.875H146.109L148.312 87.5234L141.07 119H136.594L135.258 115.906ZM133.453 84.875L139.195 116.141L137.719 119H132.539L125.297 84.875H133.453ZM152.039 115.977L157.734 84.875H165.867L158.625 119H153.469L152.039 115.977ZM149.039 84.875L156 116.094L154.594 119H150.117L142.711 87.4766L145.008 84.875H149.039ZM186.68 109.93C186.68 109.398 186.602 108.922 186.445 108.5C186.289 108.062 186 107.656 185.578 107.281C185.156 106.906 184.547 106.531 183.75 106.156C182.969 105.766 181.938 105.359 180.656 104.938C179.156 104.438 177.711 103.875 176.32 103.25C174.93 102.609 173.688 101.867 172.594 101.023C171.5 100.164 170.633 99.1641 169.992 98.0234C169.352 96.8672 169.031 95.5234 169.031 93.9922C169.031 92.5234 169.359 91.2031 170.016 90.0312C170.672 88.8438 171.586 87.8359 172.758 87.0078C173.945 86.1641 175.336 85.5234 176.93 85.0859C178.523 84.6328 180.266 84.4062 182.156 84.4062C184.656 84.4062 186.859 84.8438 188.766 85.7188C190.688 86.5781 192.188 87.8047 193.266 89.3984C194.359 90.9766 194.906 92.8438 194.906 95H186.727C186.727 94.1406 186.547 93.3828 186.188 92.7266C185.844 92.0703 185.32 91.5547 184.617 91.1797C183.914 90.8047 183.031 90.6172 181.969 90.6172C180.938 90.6172 180.07 90.7734 179.367 91.0859C178.664 91.3984 178.133 91.8203 177.773 92.3516C177.414 92.8672 177.234 93.4375 177.234 94.0625C177.234 94.5781 177.375 95.0469 177.656 95.4688C177.953 95.875 178.367 96.2578 178.898 96.6172C179.445 96.9766 180.102 97.3203 180.867 97.6484C181.648 97.9766 182.523 98.2969 183.492 98.6094C185.305 99.1875 186.914 99.8359 188.32 100.555C189.742 101.258 190.938 102.062 191.906 102.969C192.891 103.859 193.633 104.875 194.133 106.016C194.648 107.156 194.906 108.445 194.906 109.883C194.906 111.414 194.609 112.773 194.016 113.961C193.422 115.148 192.57 116.156 191.461 116.984C190.352 117.797 189.023 118.414 187.477 118.836C185.93 119.258 184.203 119.469 182.297 119.469C180.547 119.469 178.82 119.25 177.117 118.812C175.43 118.359 173.898 117.672 172.523 116.75C171.148 115.812 170.047 114.617 169.219 113.164C168.406 111.695 168 109.953 168 107.938H176.25C176.25 108.938 176.383 109.781 176.648 110.469C176.914 111.156 177.305 111.711 177.82 112.133C178.336 112.539 178.969 112.836 179.719 113.023C180.469 113.195 181.328 113.281 182.297 113.281C183.344 113.281 184.188 113.133 184.828 112.836C185.469 112.523 185.938 112.117 186.234 111.617C186.531 111.102 186.68 110.539 186.68 109.93ZM222.188 119H214.617L214.664 112.672H222.188C223.75 112.672 225.07 112.297 226.148 111.547C227.242 110.797 228.07 109.68 228.633 108.195C229.211 106.695 229.5 104.852 229.5 102.664V101.188C229.5 99.5469 229.336 98.1094 229.008 96.875C228.695 95.625 228.227 94.5859 227.602 93.7578C226.977 92.9141 226.195 92.2812 225.258 91.8594C224.336 91.4375 223.273 91.2266 222.07 91.2266H214.477V84.875H222.07C224.383 84.875 226.5 85.2734 228.422 86.0703C230.359 86.8516 232.031 87.9766 233.438 89.4453C234.859 90.8984 235.953 92.625 236.719 94.625C237.5 96.6094 237.891 98.8125 237.891 101.234V102.664C237.891 105.07 237.5 107.273 236.719 109.273C235.953 111.273 234.867 113 233.461 114.453C232.055 115.906 230.391 117.031 228.469 117.828C226.562 118.609 224.469 119 222.188 119ZM219.328 84.875V119H211.102V84.875H219.328ZM254.086 119.469C252.023 119.469 250.18 119.148 248.555 118.508C246.93 117.852 245.555 116.953 244.43 115.812C243.32 114.672 242.469 113.359 241.875 111.875C241.297 110.391 241.008 108.82 241.008 107.164V106.273C241.008 104.414 241.266 102.695 241.781 101.117C242.297 99.5234 243.062 98.1328 244.078 96.9453C245.094 95.7578 246.367 94.8359 247.898 94.1797C249.43 93.5078 251.211 93.1719 253.242 93.1719C255.039 93.1719 256.648 93.4609 258.07 94.0391C259.492 94.6172 260.695 95.4453 261.68 96.5234C262.68 97.6016 263.438 98.9062 263.953 100.438C264.484 101.969 264.75 103.688 264.75 105.594V108.805H244.031V103.859H257.039V103.25C257.055 102.406 256.906 101.688 256.594 101.094C256.297 100.5 255.859 100.047 255.281 99.7344C254.703 99.4219 254 99.2656 253.172 99.2656C252.312 99.2656 251.602 99.4531 251.039 99.8281C250.492 100.203 250.062 100.719 249.75 101.375C249.453 102.016 249.242 102.758 249.117 103.602C248.992 104.445 248.93 105.336 248.93 106.273V107.164C248.93 108.102 249.055 108.953 249.305 109.719C249.57 110.484 249.945 111.141 250.43 111.688C250.93 112.219 251.523 112.633 252.211 112.93C252.914 113.227 253.711 113.375 254.602 113.375C255.68 113.375 256.742 113.172 257.789 112.766C258.836 112.359 259.734 111.688 260.484 110.75L264.07 115.016C263.555 115.75 262.82 116.461 261.867 117.148C260.93 117.836 259.805 118.398 258.492 118.836C257.18 119.258 255.711 119.469 254.086 119.469ZM275.93 98.5156V128.75H268.031V93.6406H275.391L275.93 98.5156ZM291.492 106.016V106.508C291.492 108.352 291.281 110.062 290.859 111.641C290.438 113.219 289.812 114.594 288.984 115.766C288.156 116.938 287.125 117.852 285.891 118.508C284.672 119.148 283.258 119.469 281.648 119.469C280.133 119.469 278.828 119.133 277.734 118.461C276.641 117.789 275.727 116.859 274.992 115.672C274.258 114.484 273.664 113.125 273.211 111.594C272.758 110.062 272.398 108.445 272.133 106.742V106.109C272.398 104.281 272.758 102.586 273.211 101.023C273.664 99.4453 274.258 98.0703 274.992 96.8984C275.727 95.7266 276.633 94.8125 277.711 94.1562C278.805 93.5 280.109 93.1719 281.625 93.1719C283.234 93.1719 284.648 93.4766 285.867 94.0859C287.102 94.6953 288.133 95.5703 288.961 96.7109C289.805 97.8359 290.438 99.1875 290.859 100.766C291.281 102.344 291.492 104.094 291.492 106.016ZM283.594 106.508V106.016C283.594 105.031 283.523 104.133 283.383 103.32C283.242 102.492 283.016 101.773 282.703 101.164C282.406 100.555 282.008 100.086 281.508 99.7578C281.008 99.4297 280.391 99.2656 279.656 99.2656C278.812 99.2656 278.102 99.3984 277.523 99.6641C276.961 99.9141 276.508 100.305 276.164 100.836C275.836 101.352 275.602 102 275.461 102.781C275.336 103.547 275.281 104.445 275.297 105.477V107.398C275.266 108.586 275.383 109.633 275.648 110.539C275.914 111.43 276.375 112.125 277.031 112.625C277.688 113.125 278.578 113.375 279.703 113.375C280.453 113.375 281.078 113.203 281.578 112.859C282.078 112.5 282.477 112.008 282.773 111.383C283.07 110.742 283.281 110.008 283.406 109.18C283.531 108.352 283.594 107.461 283.594 106.508ZM303.352 83V119H295.43V83H303.352ZM307.242 106.578V106.086C307.242 104.227 307.508 102.516 308.039 100.953C308.57 99.375 309.352 98.0078 310.383 96.8516C311.414 95.6953 312.688 94.7969 314.203 94.1562C315.719 93.5 317.469 93.1719 319.453 93.1719C321.453 93.1719 323.211 93.5 324.727 94.1562C326.258 94.7969 327.539 95.6953 328.57 96.8516C329.602 98.0078 330.383 99.375 330.914 100.953C331.445 102.516 331.711 104.227 331.711 106.086V106.578C331.711 108.422 331.445 110.133 330.914 111.711C330.383 113.273 329.602 114.641 328.57 115.812C327.539 116.969 326.266 117.867 324.75 118.508C323.234 119.148 321.484 119.469 319.5 119.469C317.516 119.469 315.758 119.148 314.227 118.508C312.695 117.867 311.414 116.969 310.383 115.812C309.352 114.641 308.57 113.273 308.039 111.711C307.508 110.133 307.242 108.422 307.242 106.578ZM315.141 106.086V106.578C315.141 107.531 315.211 108.422 315.352 109.25C315.492 110.078 315.727 110.805 316.055 111.43C316.383 112.039 316.828 112.516 317.391 112.859C317.953 113.203 318.656 113.375 319.5 113.375C320.328 113.375 321.016 113.203 321.562 112.859C322.125 112.516 322.57 112.039 322.898 111.43C323.227 110.805 323.461 110.078 323.602 109.25C323.742 108.422 323.812 107.531 323.812 106.578V106.086C323.812 105.164 323.742 104.297 323.602 103.484C323.461 102.656 323.227 101.93 322.898 101.305C322.57 100.664 322.125 100.164 321.562 99.8047C321 99.4453 320.297 99.2656 319.453 99.2656C318.625 99.2656 317.93 99.4453 317.367 99.8047C316.82 100.164 316.383 100.664 316.055 101.305C315.727 101.93 315.492 102.656 315.352 103.484C315.211 104.297 315.141 105.164 315.141 106.086ZM342.633 116.023L349.195 93.6406H357.68L347.484 122.773C347.266 123.414 346.977 124.102 346.617 124.836C346.258 125.586 345.766 126.297 345.141 126.969C344.516 127.641 343.711 128.188 342.727 128.609C341.758 129.031 340.555 129.242 339.117 129.242C338.352 129.242 337.789 129.203 337.43 129.125C337.086 129.062 336.555 128.945 335.836 128.773V123.125C336.039 123.125 336.211 123.125 336.352 123.125C336.508 123.125 336.68 123.125 336.867 123.125C337.711 123.125 338.383 123.039 338.883 122.867C339.398 122.695 339.789 122.445 340.055 122.117C340.336 121.789 340.555 121.391 340.711 120.922L342.633 116.023ZM340.969 93.6406L345.961 111.383L346.828 119.75H341.531L332.508 93.6406H340.969ZM367.711 99.0078V119H359.812V93.6406H367.219L367.711 99.0078ZM366.75 105.453L364.945 105.5C364.945 103.719 365.156 102.078 365.578 100.578C366 99.0781 366.625 97.7734 367.453 96.6641C368.281 95.5547 369.297 94.6953 370.5 94.0859C371.719 93.4766 373.125 93.1719 374.719 93.1719C375.828 93.1719 376.836 93.3438 377.742 93.6875C378.648 94.0156 379.43 94.5391 380.086 95.2578C380.742 95.9609 381.242 96.8828 381.586 98.0234C381.945 99.1484 382.125 100.5 382.125 102.078V119H374.227V103.086C374.227 102.008 374.102 101.195 373.852 100.648C373.617 100.102 373.273 99.7344 372.82 99.5469C372.367 99.3594 371.812 99.2656 371.156 99.2656C370.469 99.2656 369.852 99.4219 369.305 99.7344C368.758 100.047 368.289 100.484 367.898 101.047C367.523 101.594 367.234 102.242 367.031 102.992C366.844 103.742 366.75 104.562 366.75 105.453ZM381.234 105.453L379.031 105.5C379.031 103.719 379.227 102.078 379.617 100.578C380.023 99.0781 380.625 97.7734 381.422 96.6641C382.234 95.5547 383.242 94.6953 384.445 94.0859C385.648 93.4766 387.047 93.1719 388.641 93.1719C389.797 93.1719 390.859 93.3438 391.828 93.6875C392.797 94.0312 393.633 94.5859 394.336 95.3516C395.039 96.1172 395.586 97.1328 395.977 98.3984C396.367 99.6484 396.562 101.195 396.562 103.039V119H388.641V103.039C388.641 101.992 388.516 101.203 388.266 100.672C388.031 100.125 387.688 99.7578 387.234 99.5703C386.781 99.3672 386.242 99.2656 385.617 99.2656C384.867 99.2656 384.219 99.4219 383.672 99.7344C383.125 100.047 382.664 100.484 382.289 101.047C381.93 101.594 381.664 102.242 381.492 102.992C381.32 103.742 381.234 104.562 381.234 105.453ZM413.367 119.469C411.305 119.469 409.461 119.148 407.836 118.508C406.211 117.852 404.836 116.953 403.711 115.812C402.602 114.672 401.75 113.359 401.156 111.875C400.578 110.391 400.289 108.82 400.289 107.164V106.273C400.289 104.414 400.547 102.695 401.062 101.117C401.578 99.5234 402.344 98.1328 403.359 96.9453C404.375 95.7578 405.648 94.8359 407.18 94.1797C408.711 93.5078 410.492 93.1719 412.523 93.1719C414.32 93.1719 415.93 93.4609 417.352 94.0391C418.773 94.6172 419.977 95.4453 420.961 96.5234C421.961 97.6016 422.719 98.9062 423.234 100.438C423.766 101.969 424.031 103.688 424.031 105.594V108.805H403.312V103.859H416.32V103.25C416.336 102.406 416.188 101.688 415.875 101.094C415.578 100.5 415.141 100.047 414.562 99.7344C413.984 99.4219 413.281 99.2656 412.453 99.2656C411.594 99.2656 410.883 99.4531 410.32 99.8281C409.773 100.203 409.344 100.719 409.031 101.375C408.734 102.016 408.523 102.758 408.398 103.602C408.273 104.445 408.211 105.336 408.211 106.273V107.164C408.211 108.102 408.336 108.953 408.586 109.719C408.852 110.484 409.227 111.141 409.711 111.688C410.211 112.219 410.805 112.633 411.492 112.93C412.195 113.227 412.992 113.375 413.883 113.375C414.961 113.375 416.023 113.172 417.07 112.766C418.117 112.359 419.016 111.688 419.766 110.75L423.352 115.016C422.836 115.75 422.102 116.461 421.148 117.148C420.211 117.836 419.086 118.398 417.773 118.836C416.461 119.258 414.992 119.469 413.367 119.469ZM435 99.0547V119H427.102V93.6406H434.508L435 99.0547ZM434.062 105.453L432.211 105.5C432.211 103.562 432.445 101.836 432.914 100.32C433.383 98.7891 434.047 97.4922 434.906 96.4297C435.766 95.3672 436.789 94.5625 437.977 94.0156C439.18 93.4531 440.516 93.1719 441.984 93.1719C443.156 93.1719 444.227 93.3438 445.195 93.6875C446.18 94.0312 447.023 94.5859 447.727 95.3516C448.445 96.1172 448.992 97.1328 449.367 98.3984C449.758 99.6484 449.953 101.195 449.953 103.039V119H442.008V103.016C442.008 102 441.867 101.227 441.586 100.695C441.305 100.148 440.898 99.7734 440.367 99.5703C439.836 99.3672 439.188 99.2656 438.422 99.2656C437.609 99.2656 436.922 99.4219 436.359 99.7344C435.797 100.047 435.344 100.484 435 101.047C434.672 101.594 434.43 102.242 434.273 102.992C434.133 103.742 434.062 104.562 434.062 105.453ZM467.695 93.6406V99.125H452.414V93.6406H467.695ZM455.625 87.3359H463.523V110.727C463.523 111.398 463.602 111.922 463.758 112.297C463.914 112.656 464.18 112.914 464.555 113.07C464.945 113.211 465.461 113.281 466.102 113.281C466.555 113.281 466.93 113.273 467.227 113.258C467.523 113.227 467.805 113.188 468.07 113.141V118.789C467.398 119.008 466.695 119.172 465.961 119.281C465.227 119.406 464.445 119.469 463.617 119.469C461.93 119.469 460.484 119.203 459.281 118.672C458.094 118.141 457.188 117.305 456.562 116.164C455.938 115.023 455.625 113.539 455.625 111.711V87.3359Z" fill="black"/>
<path d="M1134 0H1348C1356.28 0 1363 6.71573 1363 15V148C1363 156.284 1356.28 163 1348 163H1134V0Z" fill="#289DD2"/>
<path d="M1212.5 117.5L1212.5 45.5L1284.5 45.5L1284.5 117.5L1212.5 117.5Z" fill="white" fill-opacity="0.01"/>
<path d="M1221.5 81.5125L1221.5 108.5L1275.5 108.5L1275.5 81.5" stroke="white" stroke-width="7.24" stroke-linecap="round" stroke-linejoin="round"/>
<path d="M1262 68L1248.5 54.5L1235 68" stroke="white" stroke-width="7.24" stroke-linecap="round" stroke-linejoin="round"/>
<path d="M1248.49 93.5L1248.49 54.5" stroke="white" stroke-width="7.24" stroke-linecap="round" stroke-linejoin="round"/>
</svg>
