<svg width="1363" height="163" viewBox="0 0 1363 163" fill="none" xmlns="http://www.w3.org/2000/svg">
<path d="M0 15C0 6.71573 6.71573 0 15 0H37V163H15C6.71573 163 0 156.284 0 148V15Z" fill="#424242"/>
<rect width="1097" height="163" transform="translate(37)" fill="#F0F0F0"/>
<path d="M101.906 53.9219L94.3945 51.2383V48.0859L104.602 52.375V54.6367L101.906 53.9219ZM94.3945 56.1719L101.918 53.4297L104.602 52.7852V55.0352L94.3945 59.3242V56.1719ZM119.836 46.8555L115.195 61H111.457L117.797 43.9375H120.176L119.836 46.8555ZM123.691 61L119.039 46.8555L118.664 43.9375H121.066L127.441 61H123.691ZM123.48 54.6484V57.4023H114.469V54.6484H123.48ZM134.648 61.2344C133.664 61.2344 132.781 61.0781 132 60.7656C131.219 60.4453 130.555 60.0039 130.008 59.4414C129.469 58.8789 129.055 58.2266 128.766 57.4844C128.477 56.7344 128.332 55.9375 128.332 55.0938V54.625C128.332 53.6641 128.469 52.7852 128.742 51.9883C129.016 51.1914 129.406 50.5 129.914 49.9141C130.43 49.3281 131.055 48.8789 131.789 48.5664C132.523 48.2461 133.352 48.0859 134.273 48.0859C135.172 48.0859 135.969 48.2344 136.664 48.5312C137.359 48.8281 137.941 49.25 138.41 49.7969C138.887 50.3438 139.246 51 139.488 51.7656C139.73 52.5234 139.852 53.3672 139.852 54.2969V55.7031H129.773V53.4531H136.535V53.1953C136.535 52.7266 136.449 52.3086 136.277 51.9414C136.113 51.5664 135.863 51.2695 135.527 51.0508C135.191 50.832 134.762 50.7227 134.238 50.7227C133.793 50.7227 133.41 50.8203 133.09 51.0156C132.77 51.2109 132.508 51.4844 132.305 51.8359C132.109 52.1875 131.961 52.6016 131.859 53.0781C131.766 53.5469 131.719 54.0625 131.719 54.625V55.0938C131.719 55.6016 131.789 56.0703 131.93 56.5C132.078 56.9297 132.285 57.3008 132.551 57.6133C132.824 57.9258 133.152 58.168 133.535 58.3398C133.926 58.5117 134.367 58.5977 134.859 58.5977C135.469 58.5977 136.035 58.4805 136.559 58.2461C137.09 58.0039 137.547 57.6406 137.93 57.1562L139.57 58.9375C139.305 59.3203 138.941 59.6875 138.48 60.0391C138.027 60.3906 137.48 60.6797 136.84 60.9062C136.199 61.125 135.469 61.2344 134.648 61.2344ZM149.801 48.3203H152.859V60.5781C152.859 61.7344 152.602 62.7148 152.086 63.5195C151.578 64.332 150.867 64.9453 149.953 65.3594C149.039 65.7812 147.977 65.9922 146.766 65.9922C146.234 65.9922 145.672 65.9219 145.078 65.7812C144.492 65.6406 143.93 65.4219 143.391 65.125C142.859 64.8281 142.414 64.4531 142.055 64L143.543 62.0078C143.934 62.4609 144.387 62.8125 144.902 63.0625C145.418 63.3203 145.988 63.4492 146.613 63.4492C147.223 63.4492 147.738 63.3359 148.16 63.1094C148.582 62.8906 148.906 62.5664 149.133 62.1367C149.359 61.7148 149.473 61.2031 149.473 60.6016V51.25L149.801 48.3203ZM141.27 54.8125V54.5664C141.27 53.5977 141.387 52.7188 141.621 51.9297C141.863 51.1328 142.203 50.4492 142.641 49.8789C143.086 49.3086 143.625 48.8672 144.258 48.5547C144.891 48.2422 145.605 48.0859 146.402 48.0859C147.246 48.0859 147.953 48.2422 148.523 48.5547C149.094 48.8672 149.562 49.3125 149.93 49.8906C150.297 50.4609 150.582 51.1367 150.785 51.918C150.996 52.6914 151.16 53.5391 151.277 54.4609V55C151.16 55.8828 150.984 56.7031 150.75 57.4609C150.516 58.2188 150.207 58.8828 149.824 59.4531C149.441 60.0156 148.965 60.4531 148.395 60.7656C147.832 61.0781 147.16 61.2344 146.379 61.2344C145.598 61.2344 144.891 61.0742 144.258 60.7539C143.633 60.4336 143.098 59.9844 142.652 59.4062C142.207 58.8281 141.863 58.1484 141.621 57.3672C141.387 56.5859 141.27 55.7344 141.27 54.8125ZM144.645 54.5664V54.8125C144.645 55.3359 144.695 55.8242 144.797 56.2773C144.898 56.7305 145.055 57.1328 145.266 57.4844C145.484 57.8281 145.754 58.0977 146.074 58.293C146.402 58.4805 146.789 58.5742 147.234 58.5742C147.852 58.5742 148.355 58.4453 148.746 58.1875C149.137 57.9219 149.43 57.5586 149.625 57.0977C149.82 56.6367 149.934 56.1055 149.965 55.5039V53.9688C149.949 53.4766 149.883 53.0352 149.766 52.6445C149.648 52.2461 149.484 51.9062 149.273 51.625C149.062 51.3438 148.789 51.125 148.453 50.9688C148.117 50.8125 147.719 50.7344 147.258 50.7344C146.812 50.7344 146.426 50.8359 146.098 51.0391C145.777 51.2344 145.508 51.5039 145.289 51.8477C145.078 52.1914 144.918 52.5977 144.809 53.0664C144.699 53.5273 144.645 54.0273 144.645 54.5664ZM159.047 48.3203V61H155.66V48.3203H159.047ZM155.449 45.0156C155.449 44.5234 155.621 44.1172 155.965 43.7969C156.309 43.4766 156.77 43.3164 157.348 43.3164C157.918 43.3164 158.375 43.4766 158.719 43.7969C159.07 44.1172 159.246 44.5234 159.246 45.0156C159.246 45.5078 159.07 45.9141 158.719 46.2344C158.375 46.5547 157.918 46.7148 157.348 46.7148C156.77 46.7148 156.309 46.5547 155.965 46.2344C155.621 45.9141 155.449 45.5078 155.449 45.0156ZM168.691 57.4961C168.691 57.2539 168.621 57.0352 168.48 56.8398C168.34 56.6445 168.078 56.4648 167.695 56.3008C167.32 56.1289 166.777 55.9727 166.066 55.832C165.426 55.6914 164.828 55.5156 164.273 55.3047C163.727 55.0859 163.25 54.8242 162.844 54.5195C162.445 54.2148 162.133 53.8555 161.906 53.4414C161.68 53.0195 161.566 52.5391 161.566 52C161.566 51.4688 161.68 50.9688 161.906 50.5C162.141 50.0312 162.473 49.6172 162.902 49.2578C163.34 48.8906 163.871 48.6055 164.496 48.4023C165.129 48.1914 165.84 48.0859 166.629 48.0859C167.73 48.0859 168.676 48.2617 169.465 48.6133C170.262 48.9648 170.871 49.4492 171.293 50.0664C171.723 50.6758 171.938 51.3711 171.938 52.1523H168.562C168.562 51.8242 168.492 51.5312 168.352 51.2734C168.219 51.0078 168.008 50.8008 167.719 50.6523C167.438 50.4961 167.07 50.418 166.617 50.418C166.242 50.418 165.918 50.4844 165.645 50.6172C165.371 50.7422 165.16 50.9141 165.012 51.1328C164.871 51.3438 164.801 51.5781 164.801 51.8359C164.801 52.0312 164.84 52.207 164.918 52.3633C165.004 52.5117 165.141 52.6484 165.328 52.7734C165.516 52.8984 165.758 53.0156 166.055 53.125C166.359 53.2266 166.734 53.3203 167.18 53.4062C168.094 53.5938 168.91 53.8398 169.629 54.1445C170.348 54.4414 170.918 54.8477 171.34 55.3633C171.762 55.8711 171.973 56.5391 171.973 57.3672C171.973 57.9297 171.848 58.4453 171.598 58.9141C171.348 59.3828 170.988 59.793 170.52 60.1445C170.051 60.4883 169.488 60.7578 168.832 60.9531C168.184 61.1406 167.453 61.2344 166.641 61.2344C165.461 61.2344 164.461 61.0234 163.641 60.6016C162.828 60.1797 162.211 59.6445 161.789 58.9961C161.375 58.3398 161.168 57.668 161.168 56.9805H164.367C164.383 57.4414 164.5 57.8125 164.719 58.0938C164.945 58.375 165.23 58.5781 165.574 58.7031C165.926 58.8281 166.305 58.8906 166.711 58.8906C167.148 58.8906 167.512 58.832 167.801 58.7148C168.09 58.5898 168.309 58.4258 168.457 58.2227C168.613 58.0117 168.691 57.7695 168.691 57.4961ZM181.312 46.8555L176.672 61H172.934L179.273 43.9375H181.652L181.312 46.8555ZM185.168 61L180.516 46.8555L180.141 43.9375H182.543L188.918 61H185.168ZM184.957 54.6484V57.4023H175.945V54.6484H184.957ZM194.238 43.9375V61H190.734V43.9375H194.238ZM203.977 52.3516V55H197.355V52.3516H203.977ZM215.883 56.5352C215.883 56.2305 215.836 55.957 215.742 55.7148C215.656 55.4648 215.492 55.2383 215.25 55.0352C215.008 54.8242 214.668 54.6172 214.23 54.4141C213.793 54.2109 213.227 54 212.531 53.7812C211.758 53.5312 211.023 53.25 210.328 52.9375C209.641 52.625 209.031 52.2617 208.5 51.8477C207.977 51.4258 207.562 50.9375 207.258 50.3828C206.961 49.8281 206.812 49.1836 206.812 48.4492C206.812 47.7383 206.969 47.0938 207.281 46.5156C207.594 45.9297 208.031 45.4297 208.594 45.0156C209.156 44.5938 209.82 44.2695 210.586 44.043C211.359 43.8164 212.207 43.7031 213.129 43.7031C214.387 43.7031 215.484 43.9297 216.422 44.3828C217.359 44.8359 218.086 45.457 218.602 46.2461C219.125 47.0352 219.387 47.9375 219.387 48.9531H215.895C215.895 48.4531 215.789 48.0156 215.578 47.6406C215.375 47.2578 215.062 46.957 214.641 46.7383C214.227 46.5195 213.703 46.4102 213.07 46.4102C212.461 46.4102 211.953 46.5039 211.547 46.6914C211.141 46.8711 210.836 47.1172 210.633 47.4297C210.43 47.7344 210.328 48.0781 210.328 48.4609C210.328 48.75 210.398 49.0117 210.539 49.2461C210.688 49.4805 210.906 49.6992 211.195 49.9023C211.484 50.1055 211.84 50.2969 212.262 50.4766C212.684 50.6562 213.172 50.832 213.727 51.0039C214.656 51.2852 215.473 51.6016 216.176 51.9531C216.887 52.3047 217.48 52.6992 217.957 53.1367C218.434 53.5742 218.793 54.0703 219.035 54.625C219.277 55.1797 219.398 55.8086 219.398 56.5117C219.398 57.2539 219.254 57.918 218.965 58.5039C218.676 59.0898 218.258 59.5859 217.711 59.9922C217.164 60.3984 216.512 60.707 215.754 60.918C214.996 61.1289 214.148 61.2344 213.211 61.2344C212.367 61.2344 211.535 61.125 210.715 60.9062C209.895 60.6797 209.148 60.3398 208.477 59.8867C207.812 59.4336 207.281 58.8555 206.883 58.1523C206.484 57.4492 206.285 56.6172 206.285 55.6562H209.812C209.812 56.1875 209.895 56.6367 210.059 57.0039C210.223 57.3711 210.453 57.668 210.75 57.8945C211.055 58.1211 211.414 58.2852 211.828 58.3867C212.25 58.4883 212.711 58.5391 213.211 58.5391C213.82 58.5391 214.32 58.4531 214.711 58.2812C215.109 58.1094 215.402 57.8711 215.59 57.5664C215.785 57.2617 215.883 56.918 215.883 56.5352ZM227.414 61.2344C226.43 61.2344 225.547 61.0781 224.766 60.7656C223.984 60.4453 223.32 60.0039 222.773 59.4414C222.234 58.8789 221.82 58.2266 221.531 57.4844C221.242 56.7344 221.098 55.9375 221.098 55.0938V54.625C221.098 53.6641 221.234 52.7852 221.508 51.9883C221.781 51.1914 222.172 50.5 222.68 49.9141C223.195 49.3281 223.82 48.8789 224.555 48.5664C225.289 48.2461 226.117 48.0859 227.039 48.0859C227.938 48.0859 228.734 48.2344 229.43 48.5312C230.125 48.8281 230.707 49.25 231.176 49.7969C231.652 50.3438 232.012 51 232.254 51.7656C232.496 52.5234 232.617 53.3672 232.617 54.2969V55.7031H222.539V53.4531H229.301V53.1953C229.301 52.7266 229.215 52.3086 229.043 51.9414C228.879 51.5664 228.629 51.2695 228.293 51.0508C227.957 50.832 227.527 50.7227 227.004 50.7227C226.559 50.7227 226.176 50.8203 225.855 51.0156C225.535 51.2109 225.273 51.4844 225.07 51.8359C224.875 52.1875 224.727 52.6016 224.625 53.0781C224.531 53.5469 224.484 54.0625 224.484 54.625V55.0938C224.484 55.6016 224.555 56.0703 224.695 56.5C224.844 56.9297 225.051 57.3008 225.316 57.6133C225.59 57.9258 225.918 58.168 226.301 58.3398C226.691 58.5117 227.133 58.5977 227.625 58.5977C228.234 58.5977 228.801 58.4805 229.324 58.2461C229.855 58.0039 230.312 57.6406 230.695 57.1562L232.336 58.9375C232.07 59.3203 231.707 59.6875 231.246 60.0391C230.793 60.3906 230.246 60.6797 229.605 60.9062C228.965 61.125 228.234 61.2344 227.414 61.2344ZM237.914 51.0859V61H234.539V48.3203H237.715L237.914 51.0859ZM241.734 48.2383L241.676 51.3672C241.512 51.3438 241.312 51.3242 241.078 51.3086C240.852 51.2852 240.645 51.2734 240.457 51.2734C239.98 51.2734 239.566 51.3359 239.215 51.4609C238.871 51.5781 238.582 51.7539 238.348 51.9883C238.121 52.2227 237.949 52.5078 237.832 52.8438C237.723 53.1797 237.66 53.5625 237.645 53.9922L236.965 53.7812C236.965 52.9609 237.047 52.207 237.211 51.5195C237.375 50.8242 237.613 50.2188 237.926 49.7031C238.246 49.1875 238.637 48.7891 239.098 48.5078C239.559 48.2266 240.086 48.0859 240.68 48.0859C240.867 48.0859 241.059 48.1016 241.254 48.1328C241.449 48.1562 241.609 48.1914 241.734 48.2383ZM247.852 58.5391L250.664 48.3203H254.191L249.914 61H247.781L247.852 58.5391ZM245.918 48.3203L248.742 58.5508L248.801 61H246.656L242.379 48.3203H245.918ZM261.375 61.2344C260.391 61.2344 259.508 61.0781 258.727 60.7656C257.945 60.4453 257.281 60.0039 256.734 59.4414C256.195 58.8789 255.781 58.2266 255.492 57.4844C255.203 56.7344 255.059 55.9375 255.059 55.0938V54.625C255.059 53.6641 255.195 52.7852 255.469 51.9883C255.742 51.1914 256.133 50.5 256.641 49.9141C257.156 49.3281 257.781 48.8789 258.516 48.5664C259.25 48.2461 260.078 48.0859 261 48.0859C261.898 48.0859 262.695 48.2344 263.391 48.5312C264.086 48.8281 264.668 49.25 265.137 49.7969C265.613 50.3438 265.973 51 266.215 51.7656C266.457 52.5234 266.578 53.3672 266.578 54.2969V55.7031H256.5V53.4531H263.262V53.1953C263.262 52.7266 263.176 52.3086 263.004 51.9414C262.84 51.5664 262.59 51.2695 262.254 51.0508C261.918 50.832 261.488 50.7227 260.965 50.7227C260.52 50.7227 260.137 50.8203 259.816 51.0156C259.496 51.2109 259.234 51.4844 259.031 51.8359C258.836 52.1875 258.688 52.6016 258.586 53.0781C258.492 53.5469 258.445 54.0625 258.445 54.625V55.0938C258.445 55.6016 258.516 56.0703 258.656 56.5C258.805 56.9297 259.012 57.3008 259.277 57.6133C259.551 57.9258 259.879 58.168 260.262 58.3398C260.652 58.5117 261.094 58.5977 261.586 58.5977C262.195 58.5977 262.762 58.4805 263.285 58.2461C263.816 58.0039 264.273 57.6406 264.656 57.1562L266.297 58.9375C266.031 59.3203 265.668 59.6875 265.207 60.0391C264.754 60.3906 264.207 60.6797 263.566 60.9062C262.926 61.125 262.195 61.2344 261.375 61.2344ZM271.875 51.0859V61H268.5V48.3203H271.676L271.875 51.0859ZM275.695 48.2383L275.637 51.3672C275.473 51.3438 275.273 51.3242 275.039 51.3086C274.812 51.2852 274.605 51.2734 274.418 51.2734C273.941 51.2734 273.527 51.3359 273.176 51.4609C272.832 51.5781 272.543 51.7539 272.309 51.9883C272.082 52.2227 271.91 52.5078 271.793 52.8438C271.684 53.1797 271.621 53.5625 271.605 53.9922L270.926 53.7812C270.926 52.9609 271.008 52.207 271.172 51.5195C271.336 50.8242 271.574 50.2188 271.887 49.7031C272.207 49.1875 272.598 48.7891 273.059 48.5078C273.52 48.2266 274.047 48.0859 274.641 48.0859C274.828 48.0859 275.02 48.1016 275.215 48.1328C275.41 48.1562 275.57 48.1914 275.695 48.2383Z" fill="#888888"/>
<path d="M106.688 119H99.1172L99.1641 112.672H106.688C108.25 112.672 109.57 112.297 110.648 111.547C111.742 110.797 112.57 109.68 113.133 108.195C113.711 106.695 114 104.852 114 102.664V101.188C114 99.5469 113.836 98.1094 113.508 96.875C113.195 95.625 112.727 94.5859 112.102 93.7578C111.477 92.9141 110.695 92.2812 109.758 91.8594C108.836 91.4375 107.773 91.2266 106.57 91.2266H98.9766V84.875H106.57C108.883 84.875 111 85.2734 112.922 86.0703C114.859 86.8516 116.531 87.9766 117.938 89.4453C119.359 90.8984 120.453 92.625 121.219 94.625C122 96.6094 122.391 98.8125 122.391 101.234V102.664C122.391 105.07 122 107.273 121.219 109.273C120.453 111.273 119.367 113 117.961 114.453C116.555 115.906 114.891 117.031 112.969 117.828C111.062 118.609 108.969 119 106.688 119ZM103.828 84.875V119H95.6016V84.875H103.828ZM134.648 93.6406V119H126.727V93.6406H134.648ZM126.258 87.1016C126.258 85.9766 126.664 85.0547 127.477 84.3359C128.289 83.6172 129.344 83.2578 130.641 83.2578C131.938 83.2578 132.992 83.6172 133.805 84.3359C134.617 85.0547 135.023 85.9766 135.023 87.1016C135.023 88.2266 134.617 89.1484 133.805 89.8672C132.992 90.5859 131.938 90.9453 130.641 90.9453C129.344 90.9453 128.289 90.5859 127.477 89.8672C126.664 89.1484 126.258 88.2266 126.258 87.1016ZM147.492 99.9219V119H139.594V93.6406H146.977L147.492 99.9219ZM154.992 93.4531L154.852 100.789C154.539 100.758 154.117 100.719 153.586 100.672C153.055 100.625 152.609 100.602 152.25 100.602C151.328 100.602 150.531 100.711 149.859 100.93C149.203 101.133 148.656 101.445 148.219 101.867C147.797 102.273 147.484 102.789 147.281 103.414C147.094 104.039 147.008 104.766 147.023 105.594L145.594 104.656C145.594 102.953 145.758 101.406 146.086 100.016C146.43 98.6094 146.914 97.3984 147.539 96.3828C148.164 95.3516 148.922 94.5625 149.812 94.0156C150.703 93.4531 151.703 93.1719 152.812 93.1719C153.203 93.1719 153.586 93.1953 153.961 93.2422C154.352 93.2891 154.695 93.3594 154.992 93.4531ZM169.523 119.469C167.461 119.469 165.617 119.148 163.992 118.508C162.367 117.852 160.992 116.953 159.867 115.812C158.758 114.672 157.906 113.359 157.312 111.875C156.734 110.391 156.445 108.82 156.445 107.164V106.273C156.445 104.414 156.703 102.695 157.219 101.117C157.734 99.5234 158.5 98.1328 159.516 96.9453C160.531 95.7578 161.805 94.8359 163.336 94.1797C164.867 93.5078 166.648 93.1719 168.68 93.1719C170.477 93.1719 172.086 93.4609 173.508 94.0391C174.93 94.6172 176.133 95.4453 177.117 96.5234C178.117 97.6016 178.875 98.9062 179.391 100.438C179.922 101.969 180.188 103.688 180.188 105.594V108.805H159.469V103.859H172.477V103.25C172.492 102.406 172.344 101.688 172.031 101.094C171.734 100.5 171.297 100.047 170.719 99.7344C170.141 99.4219 169.438 99.2656 168.609 99.2656C167.75 99.2656 167.039 99.4531 166.477 99.8281C165.93 100.203 165.5 100.719 165.188 101.375C164.891 102.016 164.68 102.758 164.555 103.602C164.43 104.445 164.367 105.336 164.367 106.273V107.164C164.367 108.102 164.492 108.953 164.742 109.719C165.008 110.484 165.383 111.141 165.867 111.688C166.367 112.219 166.961 112.633 167.648 112.93C168.352 113.227 169.148 113.375 170.039 113.375C171.117 113.375 172.18 113.172 173.227 112.766C174.273 112.359 175.172 111.688 175.922 110.75L179.508 115.016C178.992 115.75 178.258 116.461 177.305 117.148C176.367 117.836 175.242 118.398 173.93 118.836C172.617 119.258 171.148 119.469 169.523 119.469ZM194.109 113.375C194.844 113.375 195.469 113.242 195.984 112.977C196.516 112.695 196.914 112.305 197.18 111.805C197.461 111.289 197.594 110.672 197.578 109.953H205.008C205.023 111.859 204.555 113.531 203.602 114.969C202.664 116.391 201.383 117.5 199.758 118.297C198.148 119.078 196.328 119.469 194.297 119.469C192.312 119.469 190.578 119.148 189.094 118.508C187.609 117.852 186.367 116.945 185.367 115.789C184.383 114.617 183.641 113.25 183.141 111.688C182.656 110.125 182.414 108.43 182.414 106.602V106.062C182.414 104.234 182.656 102.539 183.141 100.977C183.641 99.3984 184.383 98.0312 185.367 96.875C186.367 95.7031 187.602 94.7969 189.07 94.1562C190.555 93.5 192.281 93.1719 194.25 93.1719C196.359 93.1719 198.219 93.5703 199.828 94.3672C201.453 95.1641 202.727 96.3203 203.648 97.8359C204.57 99.3516 205.023 101.188 205.008 103.344H197.578C197.594 102.578 197.477 101.891 197.227 101.281C196.977 100.672 196.586 100.188 196.055 99.8281C195.539 99.4531 194.875 99.2656 194.062 99.2656C193.25 99.2656 192.594 99.4453 192.094 99.8047C191.594 100.164 191.211 100.664 190.945 101.305C190.695 101.93 190.523 102.648 190.43 103.461C190.352 104.273 190.312 105.141 190.312 106.062V106.602C190.312 107.539 190.352 108.422 190.43 109.25C190.523 110.062 190.703 110.781 190.969 111.406C191.234 112.016 191.617 112.5 192.117 112.859C192.617 113.203 193.281 113.375 194.109 113.375ZM221.742 93.6406V99.125H206.461V93.6406H221.742ZM209.672 87.3359H217.57V110.727C217.57 111.398 217.648 111.922 217.805 112.297C217.961 112.656 218.227 112.914 218.602 113.07C218.992 113.211 219.508 113.281 220.148 113.281C220.602 113.281 220.977 113.273 221.273 113.258C221.57 113.227 221.852 113.188 222.117 113.141V118.789C221.445 119.008 220.742 119.172 220.008 119.281C219.273 119.406 218.492 119.469 217.664 119.469C215.977 119.469 214.531 119.203 213.328 118.672C212.141 118.141 211.234 117.305 210.609 116.164C209.984 115.023 209.672 113.539 209.672 111.711V87.3359ZM223.195 106.578V106.086C223.195 104.227 223.461 102.516 223.992 100.953C224.523 99.375 225.305 98.0078 226.336 96.8516C227.367 95.6953 228.641 94.7969 230.156 94.1562C231.672 93.5 233.422 93.1719 235.406 93.1719C237.406 93.1719 239.164 93.5 240.68 94.1562C242.211 94.7969 243.492 95.6953 244.523 96.8516C245.555 98.0078 246.336 99.375 246.867 100.953C247.398 102.516 247.664 104.227 247.664 106.086V106.578C247.664 108.422 247.398 110.133 246.867 111.711C246.336 113.273 245.555 114.641 244.523 115.812C243.492 116.969 242.219 117.867 240.703 118.508C239.188 119.148 237.438 119.469 235.453 119.469C233.469 119.469 231.711 119.148 230.18 118.508C228.648 117.867 227.367 116.969 226.336 115.812C225.305 114.641 224.523 113.273 223.992 111.711C223.461 110.133 223.195 108.422 223.195 106.578ZM231.094 106.086V106.578C231.094 107.531 231.164 108.422 231.305 109.25C231.445 110.078 231.68 110.805 232.008 111.43C232.336 112.039 232.781 112.516 233.344 112.859C233.906 113.203 234.609 113.375 235.453 113.375C236.281 113.375 236.969 113.203 237.516 112.859C238.078 112.516 238.523 112.039 238.852 111.43C239.18 110.805 239.414 110.078 239.555 109.25C239.695 108.422 239.766 107.531 239.766 106.578V106.086C239.766 105.164 239.695 104.297 239.555 103.484C239.414 102.656 239.18 101.93 238.852 101.305C238.523 100.664 238.078 100.164 237.516 99.8047C236.953 99.4453 236.25 99.2656 235.406 99.2656C234.578 99.2656 233.883 99.4453 233.32 99.8047C232.773 100.164 232.336 100.664 232.008 101.305C231.68 101.93 231.445 102.656 231.305 103.484C231.164 104.297 231.094 105.164 231.094 106.086ZM259.148 99.9219V119H251.25V93.6406H258.633L259.148 99.9219ZM266.648 93.4531L266.508 100.789C266.195 100.758 265.773 100.719 265.242 100.672C264.711 100.625 264.266 100.602 263.906 100.602C262.984 100.602 262.188 100.711 261.516 100.93C260.859 101.133 260.312 101.445 259.875 101.867C259.453 102.273 259.141 102.789 258.938 103.414C258.75 104.039 258.664 104.766 258.68 105.594L257.25 104.656C257.25 102.953 257.414 101.406 257.742 100.016C258.086 98.6094 258.57 97.3984 259.195 96.3828C259.82 95.3516 260.578 94.5625 261.469 94.0156C262.359 93.4531 263.359 93.1719 264.469 93.1719C264.859 93.1719 265.242 93.1953 265.617 93.2422C266.008 93.2891 266.352 93.3594 266.648 93.4531ZM277.57 116.023L284.133 93.6406H292.617L282.422 122.773C282.203 123.414 281.914 124.102 281.555 124.836C281.195 125.586 280.703 126.297 280.078 126.969C279.453 127.641 278.648 128.188 277.664 128.609C276.695 129.031 275.492 129.242 274.055 129.242C273.289 129.242 272.727 129.203 272.367 129.125C272.023 129.062 271.492 128.945 270.773 128.773V123.125C270.977 123.125 271.148 123.125 271.289 123.125C271.445 123.125 271.617 123.125 271.805 123.125C272.648 123.125 273.32 123.039 273.82 122.867C274.336 122.695 274.727 122.445 274.992 122.117C275.273 121.789 275.492 121.391 275.648 120.922L277.57 116.023ZM275.906 93.6406L280.898 111.383L281.766 119.75H276.469L267.445 93.6406H275.906ZM324.586 109.93C324.586 109.398 324.508 108.922 324.352 108.5C324.195 108.062 323.906 107.656 323.484 107.281C323.062 106.906 322.453 106.531 321.656 106.156C320.875 105.766 319.844 105.359 318.562 104.938C317.062 104.438 315.617 103.875 314.227 103.25C312.836 102.609 311.594 101.867 310.5 101.023C309.406 100.164 308.539 99.1641 307.898 98.0234C307.258 96.8672 306.938 95.5234 306.938 93.9922C306.938 92.5234 307.266 91.2031 307.922 90.0312C308.578 88.8438 309.492 87.8359 310.664 87.0078C311.852 86.1641 313.242 85.5234 314.836 85.0859C316.43 84.6328 318.172 84.4062 320.062 84.4062C322.562 84.4062 324.766 84.8438 326.672 85.7188C328.594 86.5781 330.094 87.8047 331.172 89.3984C332.266 90.9766 332.812 92.8438 332.812 95H324.633C324.633 94.1406 324.453 93.3828 324.094 92.7266C323.75 92.0703 323.227 91.5547 322.523 91.1797C321.82 90.8047 320.938 90.6172 319.875 90.6172C318.844 90.6172 317.977 90.7734 317.273 91.0859C316.57 91.3984 316.039 91.8203 315.68 92.3516C315.32 92.8672 315.141 93.4375 315.141 94.0625C315.141 94.5781 315.281 95.0469 315.562 95.4688C315.859 95.875 316.273 96.2578 316.805 96.6172C317.352 96.9766 318.008 97.3203 318.773 97.6484C319.555 97.9766 320.43 98.2969 321.398 98.6094C323.211 99.1875 324.82 99.8359 326.227 100.555C327.648 101.258 328.844 102.062 329.812 102.969C330.797 103.859 331.539 104.875 332.039 106.016C332.555 107.156 332.812 108.445 332.812 109.883C332.812 111.414 332.516 112.773 331.922 113.961C331.328 115.148 330.477 116.156 329.367 116.984C328.258 117.797 326.93 118.414 325.383 118.836C323.836 119.258 322.109 119.469 320.203 119.469C318.453 119.469 316.727 119.25 315.023 118.812C313.336 118.359 311.805 117.672 310.43 116.75C309.055 115.812 307.953 114.617 307.125 113.164C306.312 111.695 305.906 109.953 305.906 107.938H314.156C314.156 108.938 314.289 109.781 314.555 110.469C314.82 111.156 315.211 111.711 315.727 112.133C316.242 112.539 316.875 112.836 317.625 113.023C318.375 113.195 319.234 113.281 320.203 113.281C321.25 113.281 322.094 113.133 322.734 112.836C323.375 112.523 323.844 112.117 324.141 111.617C324.438 111.102 324.586 110.539 324.586 109.93ZM350.039 93.6406V99.125H334.758V93.6406H350.039ZM337.969 87.3359H345.867V110.727C345.867 111.398 345.945 111.922 346.102 112.297C346.258 112.656 346.523 112.914 346.898 113.07C347.289 113.211 347.805 113.281 348.445 113.281C348.898 113.281 349.273 113.273 349.57 113.258C349.867 113.227 350.148 113.188 350.414 113.141V118.789C349.742 119.008 349.039 119.172 348.305 119.281C347.57 119.406 346.789 119.469 345.961 119.469C344.273 119.469 342.828 119.203 341.625 118.672C340.438 118.141 339.531 117.305 338.906 116.164C338.281 115.023 337.969 113.539 337.969 111.711V87.3359ZM361.148 99.9219V119H353.25V93.6406H360.633L361.148 99.9219ZM368.648 93.4531L368.508 100.789C368.195 100.758 367.773 100.719 367.242 100.672C366.711 100.625 366.266 100.602 365.906 100.602C364.984 100.602 364.188 100.711 363.516 100.93C362.859 101.133 362.312 101.445 361.875 101.867C361.453 102.273 361.141 102.789 360.938 103.414C360.75 104.039 360.664 104.766 360.68 105.594L359.25 104.656C359.25 102.953 359.414 101.406 359.742 100.016C360.086 98.6094 360.57 97.3984 361.195 96.3828C361.82 95.3516 362.578 94.5625 363.469 94.0156C364.359 93.4531 365.359 93.1719 366.469 93.1719C366.859 93.1719 367.242 93.1953 367.617 93.2422C368.008 93.2891 368.352 93.3594 368.648 93.4531ZM386.18 112.836V93.6406H394.102V119H386.695L386.18 112.836ZM386.93 107.68L388.992 107.633C388.992 109.336 388.789 110.914 388.383 112.367C387.977 113.805 387.375 115.055 386.578 116.117C385.797 117.18 384.828 118.008 383.672 118.602C382.531 119.18 381.211 119.469 379.711 119.469C378.461 119.469 377.312 119.297 376.266 118.953C375.234 118.594 374.344 118.039 373.594 117.289C372.844 116.523 372.258 115.547 371.836 114.359C371.43 113.156 371.227 111.719 371.227 110.047V93.6406H379.125V110.094C379.125 110.656 379.195 111.141 379.336 111.547C379.477 111.953 379.68 112.297 379.945 112.578C380.211 112.844 380.539 113.047 380.93 113.188C381.336 113.312 381.797 113.375 382.312 113.375C383.5 113.375 384.43 113.125 385.102 112.625C385.773 112.125 386.242 111.445 386.508 110.586C386.789 109.727 386.93 108.758 386.93 107.68ZM409.172 113.375C409.906 113.375 410.531 113.242 411.047 112.977C411.578 112.695 411.977 112.305 412.242 111.805C412.523 111.289 412.656 110.672 412.641 109.953H420.07C420.086 111.859 419.617 113.531 418.664 114.969C417.727 116.391 416.445 117.5 414.82 118.297C413.211 119.078 411.391 119.469 409.359 119.469C407.375 119.469 405.641 119.148 404.156 118.508C402.672 117.852 401.43 116.945 400.43 115.789C399.445 114.617 398.703 113.25 398.203 111.688C397.719 110.125 397.477 108.43 397.477 106.602V106.062C397.477 104.234 397.719 102.539 398.203 100.977C398.703 99.3984 399.445 98.0312 400.43 96.875C401.43 95.7031 402.664 94.7969 404.133 94.1562C405.617 93.5 407.344 93.1719 409.312 93.1719C411.422 93.1719 413.281 93.5703 414.891 94.3672C416.516 95.1641 417.789 96.3203 418.711 97.8359C419.633 99.3516 420.086 101.188 420.07 103.344H412.641C412.656 102.578 412.539 101.891 412.289 101.281C412.039 100.672 411.648 100.188 411.117 99.8281C410.602 99.4531 409.938 99.2656 409.125 99.2656C408.312 99.2656 407.656 99.4453 407.156 99.8047C406.656 100.164 406.273 100.664 406.008 101.305C405.758 101.93 405.586 102.648 405.492 103.461C405.414 104.273 405.375 105.141 405.375 106.062V106.602C405.375 107.539 405.414 108.422 405.492 109.25C405.586 110.062 405.766 110.781 406.031 111.406C406.297 112.016 406.68 112.5 407.18 112.859C407.68 113.203 408.344 113.375 409.172 113.375ZM436.805 93.6406V99.125H421.523V93.6406H436.805ZM424.734 87.3359H432.633V110.727C432.633 111.398 432.711 111.922 432.867 112.297C433.023 112.656 433.289 112.914 433.664 113.07C434.055 113.211 434.57 113.281 435.211 113.281C435.664 113.281 436.039 113.273 436.336 113.258C436.633 113.227 436.914 113.188 437.18 113.141V118.789C436.508 119.008 435.805 119.172 435.07 119.281C434.336 119.406 433.555 119.469 432.727 119.469C431.039 119.469 429.594 119.203 428.391 118.672C427.203 118.141 426.297 117.305 425.672 116.164C425.047 115.023 424.734 113.539 424.734 111.711V87.3359ZM454.758 112.836V93.6406H462.68V119H455.273L454.758 112.836ZM455.508 107.68L457.57 107.633C457.57 109.336 457.367 110.914 456.961 112.367C456.555 113.805 455.953 115.055 455.156 116.117C454.375 117.18 453.406 118.008 452.25 118.602C451.109 119.18 449.789 119.469 448.289 119.469C447.039 119.469 445.891 119.297 444.844 118.953C443.812 118.594 442.922 118.039 442.172 117.289C441.422 116.523 440.836 115.547 440.414 114.359C440.008 113.156 439.805 111.719 439.805 110.047V93.6406H447.703V110.094C447.703 110.656 447.773 111.141 447.914 111.547C448.055 111.953 448.258 112.297 448.523 112.578C448.789 112.844 449.117 113.047 449.508 113.188C449.914 113.312 450.375 113.375 450.891 113.375C452.078 113.375 453.008 113.125 453.68 112.625C454.352 112.125 454.82 111.445 455.086 110.586C455.367 109.727 455.508 108.758 455.508 107.68ZM475.008 99.9219V119H467.109V93.6406H474.492L475.008 99.9219ZM482.508 93.4531L482.367 100.789C482.055 100.758 481.633 100.719 481.102 100.672C480.57 100.625 480.125 100.602 479.766 100.602C478.844 100.602 478.047 100.711 477.375 100.93C476.719 101.133 476.172 101.445 475.734 101.867C475.312 102.273 475 102.789 474.797 103.414C474.609 104.039 474.523 104.766 474.539 105.594L473.109 104.656C473.109 102.953 473.273 101.406 473.602 100.016C473.945 98.6094 474.43 97.3984 475.055 96.3828C475.68 95.3516 476.438 94.5625 477.328 94.0156C478.219 93.4531 479.219 93.1719 480.328 93.1719C480.719 93.1719 481.102 93.1953 481.477 93.2422C481.867 93.2891 482.211 93.3594 482.508 93.4531ZM497.039 119.469C494.977 119.469 493.133 119.148 491.508 118.508C489.883 117.852 488.508 116.953 487.383 115.812C486.273 114.672 485.422 113.359 484.828 111.875C484.25 110.391 483.961 108.82 483.961 107.164V106.273C483.961 104.414 484.219 102.695 484.734 101.117C485.25 99.5234 486.016 98.1328 487.031 96.9453C488.047 95.7578 489.32 94.8359 490.852 94.1797C492.383 93.5078 494.164 93.1719 496.195 93.1719C497.992 93.1719 499.602 93.4609 501.023 94.0391C502.445 94.6172 503.648 95.4453 504.633 96.5234C505.633 97.6016 506.391 98.9062 506.906 100.438C507.438 101.969 507.703 103.688 507.703 105.594V108.805H486.984V103.859H499.992V103.25C500.008 102.406 499.859 101.688 499.547 101.094C499.25 100.5 498.812 100.047 498.234 99.7344C497.656 99.4219 496.953 99.2656 496.125 99.2656C495.266 99.2656 494.555 99.4531 493.992 99.8281C493.445 100.203 493.016 100.719 492.703 101.375C492.406 102.016 492.195 102.758 492.07 103.602C491.945 104.445 491.883 105.336 491.883 106.273V107.164C491.883 108.102 492.008 108.953 492.258 109.719C492.523 110.484 492.898 111.141 493.383 111.688C493.883 112.219 494.477 112.633 495.164 112.93C495.867 113.227 496.664 113.375 497.555 113.375C498.633 113.375 499.695 113.172 500.742 112.766C501.789 112.359 502.688 111.688 503.438 110.75L507.023 115.016C506.508 115.75 505.773 116.461 504.82 117.148C503.883 117.836 502.758 118.398 501.445 118.836C500.133 119.258 498.664 119.469 497.039 119.469Z" fill="black"/>
<path d="M1134 0H1348C1356.28 0 1363 6.71573 1363 15V148C1363 156.284 1356.28 163 1348 163H1134V0Z" fill="#289DD2"/>
<g clip-path="url(#clip0_418_249)">
<path d="M1220.11 49.5625C1220.11 47.0389 1218.3 45 1216.06 45C1213.81 45 1212 47.0389 1212 49.5625V63.25V99.75C1212 104.783 1215.64 108.875 1220.11 108.875H1244.44V99.75H1220.11V67.8125H1244.44V58.6875H1220.11V49.5625ZM1248.5 72.375C1248.5 74.8986 1250.31 76.9375 1252.56 76.9375H1280.94C1283.19 76.9375 1285 74.8986 1285 72.375V54.125C1285 51.6014 1283.19 49.5625 1280.94 49.5625H1268.44C1267.36 49.5625 1266.33 49.0777 1265.57 48.2223L1263.89 46.3402C1263.13 45.4848 1262.1 45 1261.02 45H1252.56C1250.31 45 1248.5 47.0389 1248.5 49.5625V72.375ZM1248.5 113.438C1248.5 115.961 1250.31 118 1252.56 118H1280.94C1283.19 118 1285 115.961 1285 113.438V95.1875C1285 92.6639 1283.19 90.625 1280.94 90.625H1268.44C1267.36 90.625 1266.33 90.1402 1265.57 89.2848L1263.89 87.3885C1263.13 86.533 1262.1 86.0482 1261.02 86.0482L1252.56 86.0625C1250.31 86.0625 1248.5 88.1014 1248.5 90.625V113.438Z" fill="white"/>
</g>
<defs>
<clipPath id="clip0_418_249">
<rect width="73" height="73" fill="white" transform="translate(1212 45)"/>
</clipPath>
</defs>
</svg>
